<?xml version="1.0" standalone="no"?>
<!DOCTYPE svg PUBLIC "-//W3C//DTD SVG 20010904//EN"
 "http://www.w3.org/TR/2001/REC-SVG-20010904/DTD/svg10.dtd">
<svg version="1.0" xmlns="http://www.w3.org/2000/svg"
 width="614.000000pt" height="612.000000pt" viewBox="0 0 614.000000 612.000000"
 preserveAspectRatio="xMidYMid meet">

<g transform="translate(0.000000,612.000000) scale(0.100000,-0.100000)"
fill="white" stroke="none">
<path d="M2895 4303 c-27 -7 -66 -20 -85 -28 -19 -7 -57 -17 -84 -20 -32 -4
-57 -15 -72 -30 -13 -14 -43 -29 -67 -36 -47 -12 -100 -48 -135 -91 -13 -15
-29 -28 -36 -28 -22 0 -116 -104 -116 -129 0 -30 244 -300 324 -357 151 -108
244 -179 240 -183 -18 -19 -299 179 -507 358 l-118 101 -35 -28 c-19 -15 -39
-43 -45 -62 -7 -19 -25 -61 -40 -92 -16 -32 -29 -64 -29 -73 0 -9 -7 -27 -16
-41 -16 -24 -16 -26 7 -50 20 -21 21 -27 9 -34 -8 -5 -18 -10 -22 -10 -15 0
-27 -67 -19 -106 4 -23 5 -82 1 -130 -6 -66 -4 -93 5 -104 7 -8 20 -42 30 -75
9 -32 23 -68 31 -79 8 -11 14 -27 14 -34 0 -8 11 -27 24 -43 14 -17 29 -53 36
-86 6 -32 13 -68 16 -81 2 -12 19 -34 37 -49 17 -15 63 -59 101 -98 88 -89
166 -141 234 -157 37 -8 60 -20 77 -40 28 -34 90 -63 166 -79 30 -6 76 -22
102 -36 26 -13 53 -21 59 -17 6 4 40 8 77 9 93 4 203 24 222 41 8 8 29 14 45
14 16 0 65 11 109 25 44 14 90 25 103 25 15 0 36 18 68 60 37 46 55 61 81 66
40 8 115 72 177 152 22 30 53 69 67 87 15 19 29 53 33 75 3 22 13 43 21 46 20
8 89 219 82 253 -4 20 0 32 15 45 19 17 20 26 16 150 -3 122 -5 135 -31 179
-16 26 -25 52 -22 57 4 6 -11 59 -33 118 -22 59 -47 127 -54 152 -13 39 -18
45 -45 48 -25 2 -34 10 -42 33 -6 16 -26 49 -44 72 -19 23 -40 52 -46 65 -7
12 -31 34 -54 49 -23 14 -59 41 -80 59 -20 19 -48 34 -61 34 -20 0 -53 15
-208 97 -52 27 -269 51 -303 33 -17 -9 -29 -8 -60 4 -44 19 -54 19 -120 -1z
m376 -67 c384 -100 624 -326 735 -692 25 -80 27 -105 28 -249 1 -180 -10 -238
-69 -360 -51 -107 -190 -308 -248 -361 -115 -104 -262 -181 -425 -221 -49 -12
-110 -17 -227 -17 -146 0 -168 3 -250 28 -293 89 -526 296 -635 563 -55 136
-65 194 -65 373 0 193 15 262 93 423 45 94 48 97 67 83 20 -14 20 -15 -3 -61
-13 -26 -21 -49 -19 -51 2 -2 12 14 22 36 19 43 35 49 55 25 11 -13 9 -19 -7
-38 -11 -12 -25 -31 -31 -42 -23 -46 -84 -305 -87 -375 l-4 -75 9 70 c15 113
76 339 105 389 29 50 51 58 79 27 16 -18 15 -23 -30 -112 -45 -90 -84 -190
-84 -213 0 -6 29 52 63 129 35 77 68 149 75 160 11 20 11 20 12 -2 0 -14 5
-21 13 -18 6 3 19 1 27 -4 12 -8 11 -13 -5 -32 -20 -22 -20 -22 1 -9 18 11 27
8 78 -26 50 -34 56 -42 51 -64 -6 -24 -6 -24 8 -6 14 19 15 19 45 -2 l30 -22
-29 -58 c-16 -31 -29 -64 -29 -72 0 -8 12 10 26 40 33 71 43 83 60 70 10 -9 8
-20 -9 -58 -17 -37 -22 -72 -25 -162 -2 -63 -1 -112 3 -108 3 3 7 53 8 110 2
74 7 116 21 151 20 52 42 58 39 11 -2 -24 0 -26 8 -11 5 9 16 17 24 17 12 0
14 -13 10 -62 -3 -54 -3 -56 3 -16 10 59 22 73 23 27 2 -30 2 -31 6 -6 4 28
10 32 29 19 8 -5 9 -28 2 -77 -5 -38 -6 -82 -4 -97 3 -15 1 -30 -4 -33 -10 -6
-14 28 -12 90 1 29 1 29 -8 5 -4 -14 -8 -45 -9 -69 -1 -55 -13 -46 -22 17 -7
47 -7 47 -6 -13 1 -53 -1 -60 -20 -63 -26 -4 -34 38 -29 153 3 59 1 70 -5 40
-11 -56 -12 -112 -4 -165 6 -37 4 -49 -10 -60 -14 -12 -18 -12 -26 1 -7 11 -9
10 -9 -6 0 -12 -6 -27 -12 -35 -11 -12 -10 -12 3 -2 13 9 31 -4 110 -82 52
-51 105 -98 119 -105 21 -10 20 -8 -5 11 -53 39 -161 147 -175 174 -12 21 -12
27 0 34 10 6 27 -9 62 -56 70 -92 188 -176 245 -173 10 0 -2 8 -27 16 -76 27
-150 82 -201 152 -27 37 -49 69 -49 73 0 4 9 12 19 18 17 9 25 1 66 -60 26
-38 65 -85 89 -104 51 -43 142 -86 176 -85 19 1 15 3 -13 10 -21 5 -52 16 -70
25 -41 21 -107 73 -104 82 1 4 -10 23 -25 43 -15 19 -35 53 -44 75 l-16 39 52
-50 c40 -37 47 -42 30 -18 -13 18 -21 35 -18 38 9 9 59 -14 125 -56 48 -32 69
-39 95 -36 l33 4 -35 2 c-34 1 -101 40 -71 41 19 0 8 10 -44 40 -31 19 -37 20
-25 6 13 -17 12 -17 -25 -2 -42 18 -68 36 -61 43 2 3 15 -1 28 -8 18 -10 17
-6 -8 19 -40 40 -49 75 -29 114 8 17 15 42 15 55 0 23 1 23 25 7 14 -9 26 -26
26 -38 1 -17 2 -17 6 -3 5 19 5 19 27 11 11 -4 16 -19 16 -42 0 -43 5 -39 13
11 4 25 2 37 -6 37 -12 1 -91 69 -85 74 2 2 12 8 23 15 19 11 18 12 -4 5 -35
-9 -16 15 25 32 45 19 81 17 130 -5 47 -21 114 -86 114 -110 -1 -15 -1 -15
-10 0 -5 9 -26 29 -47 44 l-38 28 38 -39 c35 -38 46 -56 30 -52 -5 0 -16 -2
-26 -7 -10 -4 -23 -2 -32 5 -13 11 -14 10 -9 -3 5 -14 1 -15 -30 -6 -20 6 -41
7 -46 4 -13 -8 -13 -72 -1 -80 6 -3 7 9 4 30 -6 34 -5 35 28 34 29 0 31 -1 13
-9 -24 -9 -41 -30 -25 -30 5 0 13 5 16 11 4 6 13 8 20 5 7 -2 16 -2 20 2 3 4
24 7 46 8 32 1 39 -2 39 -18 0 -11 -5 -29 -12 -41 -10 -19 -9 -20 4 -9 13 10
17 10 21 0 3 -7 6 7 7 32 1 44 1 45 15 20 14 -25 14 -25 15 -2 0 12 5 22 10
22 6 0 11 -26 12 -57 l2 -58 3 57 c3 46 8 58 23 63 11 4 24 4 29 0 5 -3 12 -1
16 5 3 5 1 10 -4 10 -6 0 -12 8 -12 18 -1 15 -2 15 -6 -2 -4 -14 -11 -17 -35
-12 -17 3 -37 6 -44 6 -8 0 -14 8 -14 17 0 10 -25 41 -56 70 -31 29 -50 53
-42 54 21 1 -41 18 -106 29 -66 10 -114 -4 -141 -43 -8 -12 -18 -18 -22 -14
-12 13 33 62 68 73 27 9 30 12 14 16 -38 8 56 28 145 30 84 2 84 2 17 5 -54 3
-70 8 -80 23 -6 11 -19 20 -29 20 -40 0 -24 19 24 28 52 9 52 10 -28 8 -56 -1
-80 -5 -77 -12 2 -6 -7 -14 -20 -18 -14 -3 -47 -26 -75 -51 -27 -25 -55 -45
-60 -45 -23 0 -23 23 -1 48 l24 26 -28 -22 c-29 -21 -57 -20 -57 3 0 19 88 94
135 116 22 10 33 19 24 19 -22 0 -98 -51 -138 -94 -26 -27 -40 -34 -55 -30
-28 8 -66 44 -66 61 0 23 109 131 154 153 23 11 58 20 77 20 19 0 59 9 89 21
60 23 69 22 307 -11 73 -11 146 -26 164 -35 17 -9 28 -12 25 -7 -12 20 -94 42
-216 57 -222 29 -220 29 -285 6 -32 -12 -78 -21 -101 -21 -52 0 -100 -31 -176
-113 l-58 -62 -39 45 c-46 52 -47 56 -23 84 17 20 17 20 -10 3 -34 -21 -38
-21 -38 -1 0 36 209 201 298 235 94 35 179 44 290 31 53 -7 108 -14 122 -17
l25 -6 -24 11 c-13 6 -66 16 -117 22 -113 14 -219 2 -312 -35 -61 -25 -258
-169 -283 -208 -13 -18 -16 -19 -27 -6 -10 12 -5 25 32 74 24 33 68 79 97 102
30 22 63 48 74 57 11 8 1 5 -23 -7 -42 -23 -137 -114 -179 -174 -21 -29 -21
-30 -42 -11 -12 11 -21 25 -21 32 0 15 101 109 155 142 22 14 58 38 81 53 23
16 63 37 90 48 27 11 42 20 34 20 -45 1 -217 -106 -308 -191 -51 -47 -67 -57
-78 -47 -12 9 -10 16 12 43 35 40 122 117 180 157 94 64 225 116 389 152 11 3
72 5 136 6 94 1 135 -4 210 -23z m-326 -636 c3 -5 0 -10 -7 -10 -8 0 -23 -7
-34 -14 -16 -13 -12 -13 26 0 35 12 49 13 70 3 14 -6 21 -13 15 -15 -5 -2 -30
-8 -53 -14 -26 -7 -61 -27 -87 -51 -23 -21 -46 -39 -51 -39 -5 0 -20 9 -34 20
l-25 19 49 46 c27 25 63 49 80 54 42 12 44 12 51 1z m-116 -476 c17 -37 8 -39
-13 -4 -9 17 -13 30 -8 30 5 0 14 -12 21 -26z m72 -111 c13 -16 12 -17 -3 -4
-17 13 -22 21 -14 21 2 0 10 -8 17 -17z"/>
<path d="M3005 4190 l-70 -6 77 -2 c42 -1 80 2 83 8 3 6 0 9 -7 8 -7 -1 -44
-4 -83 -8z"/>
<path d="M3188 4183 c6 -2 18 -2 25 0 6 3 1 5 -13 5 -14 0 -19 -2 -12 -5z"/>
<path d="M2893 4173 c9 -2 23 -2 30 0 6 3 -1 5 -18 5 -16 0 -22 -2 -12 -5z"/>
<path d="M2838 4163 c7 -3 16 -2 19 1 4 3 -2 6 -13 5 -11 0 -14 -3 -6 -6z"/>
<path d="M3280 4160 c8 -5 20 -10 25 -10 6 0 3 5 -5 10 -8 5 -19 10 -25 10 -5
0 -3 -5 5 -10z"/>
<path d="M2765 4150 c-25 -11 1 -11 35 0 20 6 21 8 5 8 -11 0 -29 -3 -40 -8z"/>
<path d="M3321 4147 c2 -2 49 -27 104 -55 55 -29 91 -45 80 -36 -22 17 -170
94 -181 94 -4 0 -5 -2 -3 -3z"/>
<path d="M2860 4130 c-45 -8 -203 -70 -196 -78 2 -2 36 11 76 28 108 47 167
53 349 36 168 -16 233 -32 296 -71 22 -13 65 -37 95 -52 57 -29 93 -62 224
-204 96 -106 160 -203 186 -284 10 -33 19 -52 19 -43 1 31 -39 124 -78 184
-63 95 -228 276 -294 322 -87 61 -226 128 -289 141 -55 10 -288 32 -323 30
-11 -1 -40 -5 -65 -9z"/>
<path d="M2898 4013 c7 -3 16 -2 19 1 4 3 -2 6 -13 5 -11 0 -14 -3 -6 -6z"/>
<path d="M3560 4016 c0 -2 8 -10 18 -17 15 -13 16 -12 3 4 -13 16 -21 21 -21
13z"/>
<path d="M3168 3983 c6 -2 18 -2 25 0 6 3 1 5 -13 5 -14 0 -19 -2 -12 -5z"/>
<path d="M3618 3965 c12 -16 62 -75 112 -130 111 -121 179 -221 198 -289 7
-28 16 -105 19 -171 4 -101 1 -145 -22 -275 -28 -163 -53 -233 -102 -290 -16
-19 -40 -51 -53 -70 -72 -104 -110 -138 -260 -229 -100 -61 -96 -66 10 -11
104 55 146 93 261 236 110 139 118 157 154 359 39 219 31 416 -22 518 -26 51
-156 215 -239 302 -42 44 -67 67 -56 50z"/>
<path d="M2685 3931 c-16 -10 -48 -35 -70 -56 -35 -32 -32 -30 25 11 36 26 69
51 75 56 16 14 1 9 -30 -11z"/>
<path d="M2848 3933 c7 -3 16 -2 19 1 4 3 -2 6 -13 5 -11 0 -14 -3 -6 -6z"/>
<path d="M3023 3933 c9 -2 23 -2 30 0 6 3 -1 5 -18 5 -16 0 -22 -2 -12 -5z"/>
<path d="M2808 3923 c7 -3 16 -2 19 1 4 3 -2 6 -13 5 -11 0 -14 -3 -6 -6z"/>
<path d="M3088 3923 c7 -3 16 -2 19 1 4 3 -2 6 -13 5 -11 0 -14 -3 -6 -6z"/>
<path d="M2998 3883 c17 -2 47 -2 65 0 17 2 3 4 -33 4 -36 0 -50 -2 -32 -4z"/>
<path d="M3480 3886 c0 -3 9 -10 20 -16 11 -6 20 -8 20 -6 0 3 -9 10 -20 16
-11 6 -20 8 -20 6z"/>
<path d="M2898 3873 c7 -3 16 -2 19 1 4 3 -2 6 -13 5 -11 0 -14 -3 -6 -6z"/>
<path d="M3108 3873 c6 -2 18 -2 25 0 6 3 1 5 -13 5 -14 0 -19 -2 -12 -5z"/>
<path d="M2838 3863 c7 -3 16 -2 19 1 4 3 -2 6 -13 5 -11 0 -14 -3 -6 -6z"/>
<path d="M3158 3863 c6 -2 18 -2 25 0 6 3 1 5 -13 5 -14 0 -19 -2 -12 -5z"/>
<path d="M3253 3853 c9 -2 25 -2 35 0 9 3 1 5 -18 5 -19 0 -27 -2 -17 -5z"/>
<path d="M3341 3851 c-8 -6 -3 -10 16 -14 15 -4 44 -16 63 -29 34 -21 72 -35
54 -19 -29 25 -122 68 -133 62z"/>
<path d="M3540 3849 c8 -9 57 -53 109 -100 52 -46 111 -111 133 -143 21 -33
38 -55 38 -49 0 23 -102 153 -156 199 -62 53 -150 119 -124 93z"/>
<path d="M2549 3823 c-13 -16 -12 -17 4 -4 9 7 17 15 17 17 0 8 -8 3 -21 -13z"/>
<path d="M2602 3803 c-26 -38 -34 -53 -29 -53 2 0 16 18 31 40 29 45 28 56 -2
13z"/>
<path d="M2993 3793 c9 -2 25 -2 35 0 9 3 1 5 -18 5 -19 0 -27 -2 -17 -5z"/>
<path d="M3083 3793 c9 -2 23 -2 30 0 6 3 -1 5 -18 5 -16 0 -22 -2 -12 -5z"/>
<path d="M2915 3780 c-25 -11 1 -11 35 0 20 6 21 8 5 8 -11 0 -29 -3 -40 -8z"/>
<path d="M3575 3770 c10 -11 20 -20 23 -20 3 0 -3 9 -13 20 -10 11 -20 20 -23
20 -3 0 3 -9 13 -20z"/>
<path d="M3168 3773 c7 -3 16 -2 19 1 4 3 -2 6 -13 5 -11 0 -14 -3 -6 -6z"/>
<path d="M3490 3777 c0 -3 28 -29 63 -58 34 -30 56 -46 48 -36 -17 21 -111
101 -111 94z"/>
<path d="M2868 3763 c7 -3 16 -2 19 1 4 3 -2 6 -13 5 -11 0 -14 -3 -6 -6z"/>
<path d="M3228 3763 c6 -2 18 -2 25 0 6 3 1 5 -13 5 -14 0 -19 -2 -12 -5z"/>
<path d="M3446 3740 c17 -19 47 -58 66 -85 20 -28 47 -59 60 -70 20 -18 20
-16 -3 10 -14 17 -42 53 -61 80 -20 28 -49 61 -65 75 -27 24 -27 24 3 -10z"/>
<path d="M2828 3753 c7 -3 16 -2 19 1 4 3 -2 6 -13 5 -11 0 -14 -3 -6 -6z"/>
<path d="M3312 3741 c68 -27 116 -58 172 -110 38 -36 44 -39 29 -16 -12 17
-30 38 -40 48 -28 24 -171 97 -191 97 -9 -1 4 -9 30 -19z"/>
<path d="M3516 3700 c26 -33 49 -58 52 -56 4 5 -88 116 -96 116 -2 0 18 -27
44 -60z"/>
<path d="M2599 3733 c-13 -16 -12 -17 4 -4 9 7 17 15 17 17 0 8 -8 3 -21 -13z"/>
<path d="M2778 3743 c6 -2 18 -2 25 0 6 3 1 5 -13 5 -14 0 -19 -2 -12 -5z"/>
<path d="M2960 3725 c-45 -17 -29 -18 40 0 39 9 46 13 25 13 -16 0 -46 -6 -65
-13z"/>
<path d="M3095 3729 c51 -10 92 -10 50 1 -16 4 -43 8 -60 8 -25 0 -24 -2 10
-9z"/>
<path d="M2695 3700 c-16 -16 -27 -31 -24 -33 2 -2 17 11 32 30 36 41 31 43
-8 3z"/>
<path d="M3208 3713 c18 -2 45 -2 60 0 15 2 0 4 -33 4 -33 0 -45 -2 -27 -4z"/>
<path d="M2878 3703 c6 -2 18 -2 25 0 6 3 1 5 -13 5 -14 0 -19 -2 -12 -5z"/>
<path d="M3065 3689 c51 -10 92 -10 50 1 -16 4 -43 8 -60 8 -25 0 -24 -2 10
-9z"/>
<path d="M3410 3647 c30 -32 56 -57 58 -57 10 0 -56 74 -82 92 -21 14 -13 3
24 -35z"/>
<path d="M2988 3683 c7 -3 16 -2 19 1 4 3 -2 6 -13 5 -11 0 -14 -3 -6 -6z"/>
<path d="M2227 3638 c-21 -53 -60 -208 -55 -213 2 -3 21 53 41 122 37 129 43
168 14 91z"/>
<path d="M3258 3663 c7 -3 16 -2 19 1 4 3 -2 6 -13 5 -11 0 -14 -3 -6 -6z"/>
<path d="M3656 3630 c42 -45 64 -81 90 -149 13 -32 14 -33 9 -6 -11 54 -44
110 -92 155 l-48 45 41 -45z"/>
<path d="M3319 3647 c47 -15 168 -140 214 -221 l17 -31 -7 30 c-6 27 -5 29 10
17 32 -27 50 -98 44 -169 -8 -78 -64 -207 -109 -250 -17 -15 -54 -60 -84 -100
-32 -43 -69 -80 -91 -92 -21 -11 -33 -20 -27 -21 24 -1 81 49 127 110 27 36
63 81 82 100 18 19 48 64 66 100 32 64 33 65 40 35 4 -17 7 19 8 85 1 121 -13
176 -53 209 -10 8 -31 41 -47 73 -33 65 -46 78 -23 22 8 -20 13 -38 11 -40 -2
-3 -29 24 -60 59 -53 61 -108 98 -139 96 -7 -1 2 -6 21 -12z"/>
<path d="M3148 3633 c7 -3 16 -2 19 1 4 3 -2 6 -13 5 -11 0 -14 -3 -6 -6z"/>
<path d="M3205 3616 c17 -7 54 -21 84 -31 64 -21 116 -71 153 -147 54 -111 43
-137 -16 -40 -19 32 -45 67 -57 78 -17 15 -15 9 8 -26 58 -89 75 -120 63 -120
-7 0 -19 8 -28 18 -10 10 -13 12 -9 5 5 -6 6 -17 2 -23 -3 -5 -1 -10 5 -10 6
0 18 -15 26 -32 l15 -33 -7 35 c-6 35 -6 35 14 17 20 -18 20 -18 15 2 -10 39
16 21 47 -31 45 -79 36 -54 -29 85 -76 161 -109 197 -211 237 -78 29 -134 42
-75 16z"/>
<path d="M3595 3610 c10 -11 20 -20 23 -20 3 0 -3 9 -13 20 -10 11 -20 20 -23
20 -3 0 3 -9 13 -20z"/>
<path d="M3112 3600 c83 -10 157 -37 198 -73 l25 -22 -23 27 c-37 41 -114 69
-201 73 l-76 4 77 -9z"/>
<path d="M2522 3567 c-14 -17 -32 -93 -31 -132 1 -16 7 0 13 37 7 37 18 74 26
83 7 8 11 18 8 20 -3 3 -10 0 -16 -8z"/>
<path d="M3199 3540 c18 -4 54 -23 80 -40 44 -31 45 -31 21 -5 -28 31 -79 55
-112 54 -17 -1 -13 -3 11 -9z"/>
<path d="M3043 3533 c15 -2 37 -2 50 0 12 2 0 4 -28 4 -27 0 -38 -2 -22 -4z"/>
<path d="M3822 3525 c0 -11 4 -31 8 -45 6 -20 8 -21 8 -5 0 11 -4 31 -8 45 -6
20 -8 21 -8 5z"/>
<path d="M2968 3523 c7 -3 16 -2 19 1 4 3 -2 6 -13 5 -11 0 -14 -3 -6 -6z"/>
<path d="M3143 3523 c9 -2 23 -2 30 0 6 3 -1 5 -18 5 -16 0 -22 -2 -12 -5z"/>
<path d="M3220 3503 c45 -29 82 -67 111 -112 16 -25 29 -40 29 -34 0 29 -126
163 -154 163 -6 0 1 -7 14 -17z"/>
<path d="M3008 3503 c12 -2 32 -2 45 0 12 2 2 4 -23 4 -25 0 -35 -2 -22 -4z"/>
<path d="M3098 3493 c6 -2 18 -2 25 0 6 3 1 5 -13 5 -14 0 -19 -2 -12 -5z"/>
<path d="M3611 3430 c33 -62 34 -69 34 -175 -1 -60 -4 -126 -8 -145 -6 -30 -5
-32 6 -15 8 13 12 63 12 145 0 118 -2 128 -29 180 -15 30 -33 60 -38 65 -6 6
5 -19 23 -55z"/>
<path d="M3171 3476 c10 -9 69 -36 69 -32 0 6 -55 36 -66 36 -4 0 -5 -2 -3 -4z"/>
<path d="M3801 3454 c0 -11 3 -14 6 -6 3 7 2 16 -1 19 -3 4 -6 -2 -5 -13z"/>
<path d="M3150 3456 c0 -2 7 -7 16 -10 8 -3 12 -2 9 4 -6 10 -25 14 -25 6z"/>
<path d="M3335 3440 c10 -11 20 -20 23 -20 3 0 -3 9 -13 20 -10 11 -20 20 -23
20 -3 0 3 -9 13 -20z"/>
<path d="M2547 3415 c-24 -50 -20 -58 4 -12 11 22 19 41 17 43 -3 2 -12 -12
-21 -31z"/>
<path d="M3690 3445 c0 -5 5 -17 10 -25 5 -8 10 -10 10 -5 0 6 -5 17 -10 25
-5 8 -10 11 -10 5z"/>
<path d="M2382 3415 c0 -16 2 -22 5 -12 2 9 2 23 0 30 -3 6 -5 -1 -5 -18z"/>
<path d="M2968 3433 c6 -2 18 -2 25 0 6 3 1 5 -13 5 -14 0 -19 -2 -12 -5z"/>
<path d="M3221 3392 c17 -29 34 -52 36 -52 7 0 -41 81 -55 92 -7 7 1 -12 19
-40z"/>
<path d="M3277 3398 c15 -25 29 -45 31 -43 6 5 -26 61 -43 75 -9 8 -4 -7 12
-32z"/>
<path d="M3841 3424 c0 -11 3 -14 6 -6 3 7 2 16 -1 19 -3 4 -6 -2 -5 -13z"/>
<path d="M3911 3368 c0 -42 -6 -100 -12 -128 -17 -81 -5 -81 15 1 14 59 15 87
8 139 l-10 65 -1 -77z"/>
<path d="M2343 3390 c0 -25 2 -35 4 -22 2 12 2 32 0 45 -2 12 -4 2 -4 -23z"/>
<path d="M3070 3426 c0 -2 7 -7 16 -10 8 -3 12 -2 9 4 -6 10 -25 14 -25 6z"/>
<path d="M3811 3414 c0 -11 3 -14 6 -6 3 7 2 16 -1 19 -3 4 -6 -2 -5 -13z"/>
<path d="M3360 3406 c0 -2 8 -10 18 -17 15 -13 16 -12 3 4 -13 16 -21 21 -21
13z"/>
<path d="M3672 3380 c0 -14 2 -19 5 -12 2 6 2 18 0 25 -3 6 -5 1 -5 -13z"/>
<path d="M3853 3345 c0 -33 2 -45 4 -27 2 18 2 45 0 60 -2 15 -4 0 -4 -33z"/>
<path d="M2467 3303 c-18 -97 -20 -147 -7 -178 6 -13 7 -4 3 27 -3 27 2 82 12
132 9 47 15 91 13 97 -2 6 -11 -29 -21 -78z"/>
<path d="M2832 3360 c0 -14 2 -19 5 -12 2 6 2 18 0 25 -3 6 -5 1 -5 -13z"/>
<path d="M3823 3320 c0 -30 2 -43 4 -27 2 15 2 39 0 55 -2 15 -4 2 -4 -28z"/>
<path d="M3561 3350 c0 -8 4 -24 9 -35 5 -13 9 -14 9 -5 0 8 -4 24 -9 35 -5
13 -9 14 -9 5z"/>
<path d="M2271 3310 c0 -25 4 -74 9 -110 11 -67 58 -235 65 -228 2 1 -8 41
-21 88 -14 47 -31 132 -38 190 -9 67 -14 89 -15 60z"/>
<path d="M3682 3320 c0 -19 2 -27 5 -17 2 9 2 25 0 35 -3 9 -5 1 -5 -18z"/>
<path d="M2424 3245 c0 -55 1 -76 3 -47 2 29 2 74 0 100 -2 26 -3 2 -3 -53z"/>
<path d="M2611 3324 c0 -11 3 -14 6 -6 3 7 2 16 -1 19 -3 4 -6 -2 -5 -13z"/>
<path d="M3356 3325 c-3 -9 0 -15 9 -15 7 0 16 -12 18 -27 l4 -28 2 28 c1 34
-23 66 -33 42z"/>
<path d="M2155 3240 c3 -84 31 -237 41 -227 3 2 -3 37 -12 78 -8 41 -19 112
-24 159 l-9 85 4 -95z"/>
<path d="M2596 3258 c-3 -24 -2 -59 3 -78 8 -30 9 -23 10 43 1 42 -1 77 -3 77
-2 0 -6 -19 -10 -42z"/>
<path d="M3743 3255 c0 -27 2 -38 4 -22 2 15 2 37 0 50 -2 12 -4 0 -4 -28z"/>
<path d="M3581 3274 c0 -11 3 -14 6 -6 3 7 2 16 -1 19 -3 4 -6 -2 -5 -13z"/>
<path d="M2513 3220 c0 -30 2 -43 4 -27 2 15 2 39 0 55 -2 15 -4 2 -4 -28z"/>
<path d="M3321 3220 c0 -32 2 -40 9 -29 5 9 6 28 0 45 -8 27 -8 26 -9 -16z"/>
<path d="M3391 3228 c0 -16 -6 -26 -13 -24 -7 1 -10 1 -5 -1 4 -3 7 -14 8 -26
0 -21 1 -21 10 3 5 13 8 36 6 50 l-4 25 -2 -27z"/>
<path d="M3494 3205 c1 -34 -3 -49 -11 -48 -7 2 -10 -3 -7 -11 3 -7 -11 -32
-31 -56 -20 -24 -45 -60 -55 -80 -26 -50 -68 -99 -105 -121 -16 -11 -25 -19
-19 -19 29 0 96 64 123 118 16 32 50 81 75 109 47 52 57 88 36 138 -5 14 -7 5
-6 -30z"/>
<path d="M3693 3190 c0 -36 2 -50 4 -32 2 17 2 47 0 65 -2 17 -4 3 -4 -33z"/>
<path d="M3452 3211 c-2 -29 -5 -33 -23 -28 -21 6 -21 5 -3 -13 25 -24 36 -11
31 36 -4 38 -4 38 -5 5z"/>
<path d="M2946 3216 c3 -8 13 -17 22 -21 13 -5 13 -2 -3 15 -21 24 -26 25 -19
6z"/>
<path d="M2342 3190 c0 -19 2 -27 5 -17 2 9 2 25 0 35 -3 9 -5 1 -5 -18z"/>
<path d="M3017 3209 c7 -7 15 -10 18 -7 3 3 -2 9 -12 12 -14 6 -15 5 -6 -5z"/>
<path d="M3551 3204 c0 -11 3 -14 6 -6 3 7 2 16 -1 19 -3 4 -6 -2 -5 -13z"/>
<path d="M2211 3194 c0 -11 3 -14 6 -6 3 7 2 16 -1 19 -3 4 -6 -2 -5 -13z"/>
<path d="M3182 3175 c-17 -37 -14 -45 4 -12 9 16 14 31 11 33 -2 2 -9 -7 -15
-21z"/>
<path d="M3207 3153 c-9 -25 -15 -48 -13 -50 2 -2 12 16 21 42 10 25 16 47 13
50 -2 2 -12 -17 -21 -42z"/>
<path d="M3731 3184 c0 -11 3 -14 6 -6 3 7 2 16 -1 19 -3 4 -6 -2 -5 -13z"/>
<path d="M3831 3184 c0 -11 3 -14 6 -6 3 7 2 16 -1 19 -3 4 -6 -2 -5 -13z"/>
<path d="M3106 3173 c-6 -14 -5 -15 5 -6 7 7 10 15 7 18 -3 3 -9 -2 -12 -12z"/>
<path d="M3536 3163 c-6 -14 -5 -15 5 -6 7 7 10 15 7 18 -3 3 -9 -2 -12 -12z"/>
<path d="M2226 3135 c3 -22 12 -53 19 -70 l14 -30 -6 30 c-3 17 -12 48 -19 70
l-14 40 6 -40z"/>
<path d="M3822 3130 c0 -14 2 -19 5 -12 2 6 2 18 0 25 -3 6 -5 1 -5 -13z"/>
<path d="M3867 3049 c-9 -56 -25 -120 -35 -143 -37 -83 -269 -329 -343 -363
-26 -12 -83 -31 -128 -43 -45 -11 -107 -32 -137 -45 -54 -24 -62 -25 -207 -19
-174 7 -199 15 -300 91 -58 42 -177 130 -255 187 l-27 20 25 -28 c31 -35 324
-245 365 -261 17 -7 101 -15 188 -19 155 -6 160 -5 220 20 34 15 103 37 152
51 115 31 183 72 253 153 31 36 85 95 119 131 63 67 91 116 111 199 12 51 27
170 21 170 -3 0 -12 -45 -22 -101z"/>
<path d="M2510 3127 c-1 -47 110 -204 192 -270 48 -39 81 -57 160 -88 68 -26
50 -9 -22 21 -97 40 -154 84 -216 165 -84 109 -85 111 -100 152 -7 21 -13 30
-14 20z"/>
<path d="M2611 3135 c0 -5 5 -29 12 -52 9 -30 37 -67 99 -132 86 -88 89 -91
173 -116 48 -15 89 -25 91 -22 3 2 -35 17 -83 33 -82 26 -93 33 -168 106 -65
62 -85 89 -102 135 -12 32 -22 54 -22 48z"/>
<path d="M3384 3068 c-27 -40 -56 -86 -63 -101 -18 -35 -66 -65 -123 -77 l-43
-9 42 3 c81 7 112 39 222 219 37 61 19 42 -35 -35z"/>
<path d="M3428 3008 c-67 -94 -106 -139 -134 -155 -45 -26 -34 -30 13 -5 30
16 89 90 180 228 71 106 42 72 -59 -68z"/>
<path d="M2351 3104 c0 -11 3 -14 6 -6 3 7 2 16 -1 19 -3 4 -6 -2 -5 -13z"/>
<path d="M2432 3100 c0 -14 2 -19 5 -12 2 6 2 18 0 25 -3 6 -5 1 -5 -13z"/>
<path d="M3586 3103 c-6 -14 -5 -15 5 -6 7 7 10 15 7 18 -3 3 -9 -2 -12 -12z"/>
<path d="M3653 3049 c-81 -165 -166 -261 -283 -321 -19 -10 -28 -18 -19 -18 8
0 53 26 99 59 70 48 93 72 132 132 55 85 111 195 106 207 -1 4 -18 -22 -35
-59z"/>
<path d="M3145 3099 c-4 -6 -5 -12 -2 -15 2 -3 7 2 10 11 7 17 1 20 -8 4z"/>
<path d="M2470 3092 c0 -21 36 -85 60 -107 13 -11 40 -44 62 -73 35 -47 129
-126 213 -177 51 -32 14 0 -92 79 -57 42 -103 80 -103 86 0 5 -23 35 -51 66
-28 31 -60 75 -70 98 -10 22 -19 35 -19 28z"/>
<path d="M3812 3080 c0 -14 2 -19 5 -12 2 6 2 18 0 25 -3 6 -5 1 -5 -13z"/>
<path d="M3166 3062 l-19 -27 24 22 c12 12 21 24 18 27 -2 2 -13 -8 -23 -22z"/>
<path d="M3230 3082 c0 -6 -12 -25 -27 -44 -22 -27 -23 -29 -4 -13 27 23 45
54 37 63 -3 3 -6 0 -6 -6z"/>
<path d="M3525 3028 c-26 -29 -57 -73 -70 -98 -50 -96 -151 -160 -275 -170
l-75 -7 63 -1 c124 -3 255 74 297 175 9 21 38 63 66 95 28 32 48 58 46 58 -3
0 -26 -23 -52 -52z"/>
<path d="M3771 3064 c0 -11 3 -14 6 -6 3 7 2 16 -1 19 -3 4 -6 -2 -5 -13z"/>
<path d="M3616 3053 c-6 -14 -5 -15 5 -6 7 7 10 15 7 18 -3 3 -9 -2 -12 -12z"/>
<path d="M3262 2985 c-34 -35 -56 -62 -48 -59 13 5 122 124 114 124 -3 0 -32
-29 -66 -65z"/>
<path d="M3244 3018 l-19 -23 23 19 c12 11 22 21 22 23 0 8 -8 2 -26 -19z"/>
<path d="M3801 3024 c0 -11 3 -14 6 -6 3 7 2 16 -1 19 -3 4 -6 -2 -5 -13z"/>
<path d="M2260 3027 c0 -30 144 -267 172 -283 7 -4 5 1 -4 12 -10 11 -51 78
-93 149 -41 71 -75 126 -75 122z"/>
<path d="M3551 2955 c-54 -75 -130 -148 -186 -178 -16 -9 -25 -16 -19 -17 45
-1 203 154 255 251 19 37 3 18 -50 -56z"/>
<path d="M3676 3003 c-6 -14 -5 -15 5 -6 7 7 10 15 7 18 -3 3 -9 -2 -12 -12z"/>
<path d="M3200 2990 c-9 -6 -10 -10 -3 -10 6 0 15 5 18 10 8 12 4 12 -15 0z"/>
<path d="M3791 2990 c-1 -8 -12 -39 -26 -67 -13 -29 -22 -53 -19 -53 10 0 56
110 51 123 -4 8 -6 7 -6 -3z"/>
<path d="M2488 2965 c11 -16 47 -55 78 -85 56 -52 55 -51 -11 20 -92 100 -91
99 -67 65z"/>
<path d="M2658 2965 c26 -40 127 -135 143 -135 7 0 -1 10 -17 23 -17 12 -56
49 -88 82 -32 33 -49 46 -38 30z"/>
<path d="M3118 2973 c12 -2 32 -2 45 0 12 2 2 4 -23 4 -25 0 -35 -2 -22 -4z"/>
<path d="M2210 2966 c0 -18 62 -123 96 -161 l35 -40 -36 52 c-20 29 -49 76
-65 105 -17 29 -30 49 -30 44z"/>
<path d="M2356 2940 c22 -91 102 -187 230 -279 71 -51 188 -112 213 -111 3 0
-35 22 -85 49 -50 26 -111 62 -135 79 -78 54 -166 153 -199 222 -17 36 -28 54
-24 40z"/>
<path d="M3068 2923 c7 -3 16 -2 19 1 4 3 -2 6 -13 5 -11 0 -14 -3 -6 -6z"/>
<path d="M2410 2912 c0 -7 19 -32 43 -56 28 -28 32 -30 11 -6 -17 19 -36 44
-42 55 -6 11 -12 14 -12 7z"/>
<path d="M3108 2913 c7 -3 16 -2 19 1 4 3 -2 6 -13 5 -11 0 -14 -3 -6 -6z"/>
<path d="M2505 2860 c10 -11 20 -20 23 -20 3 0 -3 9 -13 20 -10 11 -20 20 -23
20 -3 0 3 -9 13 -20z"/>
<path d="M3063 2859 c33 -20 119 -23 157 -5 33 15 33 16 5 9 -40 -9 -80 -9
-135 0 -34 5 -41 4 -27 -4z"/>
<path d="M2978 2843 c7 -3 16 -2 19 1 4 3 -2 6 -13 5 -11 0 -14 -3 -6 -6z"/>
<path d="M3018 2833 c7 -3 16 -2 19 1 4 3 -2 6 -13 5 -11 0 -14 -3 -6 -6z"/>
<path d="M2835 2821 c11 -4 34 -11 50 -14 l30 -6 -30 14 c-16 8 -39 14 -50 14
l-20 0 20 -8z"/>
<path d="M3158 2809 c53 -16 37 -21 -45 -16 l-78 6 79 -11 c58 -8 84 -8 98 1
10 6 28 12 40 12 34 2 -51 18 -92 18 l-35 -1 33 -9z"/>
<path d="M3635 2778 l-40 -43 43 40 c39 36 47 45 39 45 -2 0 -21 -19 -42 -42z"/>
<path d="M3684 2798 l-19 -23 23 19 c12 11 22 21 22 23 0 8 -8 2 -26 -19z"/>
<path d="M3008 2803 c7 -3 16 -2 19 1 4 3 -2 6 -13 5 -11 0 -14 -3 -6 -6z"/>
<path d="M2395 2700 c33 -33 62 -60 64 -60 3 0 -21 27 -54 60 -33 33 -62 60
-64 60 -3 0 21 -27 54 -60z"/>
<path d="M3018 2753 c7 -3 16 -2 19 1 4 3 -2 6 -13 5 -11 0 -14 -3 -6 -6z"/>
<path d="M3308 2753 c7 -3 16 -2 19 1 4 3 -2 6 -13 5 -11 0 -14 -3 -6 -6z"/>
<path d="M3620 2727 c-19 -18 -51 -45 -70 -60 -19 -16 -25 -24 -13 -18 21 11
132 110 123 110 -3 0 -21 -14 -40 -32z"/>
<path d="M2960 2725 c14 -8 36 -14 50 -14 18 0 12 4 -20 15 -56 17 -62 17 -30
-1z"/>
<path d="M3185 2720 l-40 -7 42 -2 c23 0 45 4 48 9 3 6 3 9 -2 9 -4 -1 -26 -5
-48 -9z"/>
<path d="M2840 2716 c0 -3 9 -10 20 -16 11 -6 20 -8 20 -6 0 3 -9 10 -20 16
-11 6 -20 8 -20 6z"/>
<path d="M3048 2703 c7 -3 16 -2 19 1 4 3 -2 6 -13 5 -11 0 -14 -3 -6 -6z"/>
<path d="M3308 2703 c7 -3 16 -2 19 1 4 3 -2 6 -13 5 -11 0 -14 -3 -6 -6z"/>
<path d="M2915 2672 c35 -32 121 -39 200 -18 49 14 48 14 -46 9 -62 -4 -109
-2 -130 6 -18 6 -29 8 -24 3z"/>
<path d="M3178 2673 c7 -3 16 -2 19 1 4 3 -2 6 -13 5 -11 0 -14 -3 -6 -6z"/>
<path d="M2470 2636 c0 -2 8 -10 18 -17 15 -13 16 -12 3 4 -13 16 -21 21 -21
13z"/>
<path d="M2830 2635 c0 -7 101 -57 106 -53 2 2 -21 16 -51 31 -30 15 -55 25
-55 22z"/>
<path d="M3478 2624 c-38 -20 -36 -28 2 -9 17 9 30 18 30 20 0 7 -1 6 -32 -11z"/>
<path d="M3018 2603 c6 -2 18 -2 25 0 6 3 1 5 -13 5 -14 0 -19 -2 -12 -5z"/>
<path d="M3078 2603 c7 -3 16 -2 19 1 4 3 -2 6 -13 5 -11 0 -14 -3 -6 -6z"/>
<path d="M2570 2562 c40 -35 185 -128 215 -138 11 -3 -6 10 -39 30 -32 20 -86
56 -120 79 -78 56 -101 67 -56 29z"/>
<path d="M3370 2560 c-9 -6 -10 -10 -3 -10 6 0 15 5 18 10 8 12 4 12 -15 0z"/>
<path d="M2945 2545 c17 -8 37 -14 45 -14 8 0 -1 7 -20 14 -46 18 -64 17 -25
0z"/>
<path d="M2889 2515 c18 -8 38 -15 45 -14 15 1 -46 28 -64 28 -8 0 0 -6 19
-14z"/>
<path d="M3018 2523 c6 -2 18 -2 25 0 6 3 1 5 -13 5 -14 0 -19 -2 -12 -5z"/>
<path d="M3165 2495 c-28 -8 -39 -13 -25 -13 14 0 43 5 65 13 51 17 25 17 -40
0z"/>
<path d="M2998 2483 c7 -3 16 -2 19 1 4 3 -2 6 -13 5 -11 0 -14 -3 -6 -6z"/>
<path d="M3068 2473 c6 -2 18 -2 25 0 6 3 1 5 -13 5 -14 0 -19 -2 -12 -5z"/>
<path d="M3250 2403 c-35 -11 -82 -13 -210 -10 -91 3 -147 3 -125 1 22 -2 83
-9 136 -14 78 -9 110 -8 168 4 39 8 79 19 88 25 26 15 -2 12 -57 -6z"/>
<path d="M2830 3518 c-19 -16 -26 -26 -15 -20 18 9 64 53 54 52 -2 -1 -20 -15
-39 -32z"/>
<path d="M2480 1856 c0 -118 1 -126 20 -126 17 0 19 8 22 81 l3 81 38 -66 c22
-36 43 -66 48 -66 4 0 25 29 46 65 21 35 41 65 46 65 4 0 7 -36 7 -80 0 -73 2
-80 20 -80 19 0 20 7 20 125 0 116 -1 125 -19 125 -14 0 -33 -24 -65 -80 -26
-44 -50 -80 -54 -80 -4 0 -28 35 -53 77 -25 43 -53 79 -62 81 -15 3 -17 -10
-17 -122z"/>
<path d="M2872 1933 c-11 -27 -37 -83 -56 -125 -35 -77 -35 -78 -13 -78 16 0
26 9 34 30 11 29 13 30 78 30 64 0 66 -1 76 -30 8 -22 17 -30 34 -30 23 0 22
4 -33 125 -47 104 -60 125 -78 125 -16 0 -27 -12 -42 -47z m68 -49 c11 -26 20
-50 20 -55 0 -5 -20 -9 -45 -9 -25 0 -45 4 -45 9 0 13 38 101 44 101 3 0 14
-21 26 -46z"/>
<path d="M3090 1855 l0 -125 65 0 c81 0 129 19 155 62 37 60 22 124 -39 165
-28 19 -48 23 -107 23 l-74 0 0 -125z m160 75 c27 -15 43 -69 30 -107 -13 -36
-46 -53 -105 -53 l-45 0 0 85 0 85 51 0 c28 0 59 -4 69 -10z"/>
<path d="M3390 1855 l0 -125 90 0 c83 0 90 1 90 20 0 18 -7 20 -70 20 l-70 0
0 35 0 35 60 0 c53 0 60 2 60 20 0 18 -7 20 -60 20 -60 0 -60 0 -60 30 0 29 0
29 67 32 55 2 68 6 71 21 3 15 -6 17 -87 17 l-91 0 0 -125z"/>
<path d="M3600 1975 c0 -3 18 -30 40 -61 l41 -54 -46 -65 c-45 -62 -46 -65
-23 -65 15 0 30 10 41 28 9 15 25 37 35 50 l18 23 35 -50 c24 -37 41 -51 57
-51 23 0 21 3 -23 65 l-46 65 40 58 c35 48 38 58 24 61 -11 2 -26 -8 -38 -24
-53 -73 -47 -72 -83 -21 -20 28 -41 46 -53 46 -10 0 -19 -2 -19 -5z"/>
</g>
</svg>
