<svg width="210" height="72" viewBox="0 0 210 72" fill="none" xmlns="http://www.w3.org/2000/svg">
<path d="M31.0066 0.563768C30.0225 0.806008 28.6008 1.25637 27.9082 1.53375C27.2155 1.77634 25.8305 2.12243 24.8465 2.22556C23.6803 2.36324 22.7689 2.74468 22.2217 3.26567C21.7474 3.75197 20.6536 4.2723 19.7788 4.51467C18.0657 4.92991 16.133 6.17953 14.8558 7.67339C14.3815 8.19446 13.7979 8.64585 13.5429 8.64554C12.7412 8.64457 9.31163 12.2572 9.31057 13.1266C9.3093 14.1699 18.1888 23.5706 21.1014 25.5564C26.599 29.319 29.9847 31.7923 29.8388 31.9313C29.1821 32.5912 18.9514 25.6929 11.3798 19.4586L7.08442 15.9409L5.8079 16.9131C5.11494 17.4339 4.38499 18.4067 4.16556 19.0672C3.90968 19.7277 3.25202 21.1875 2.70413 22.2649C2.11977 23.3771 1.64472 24.4894 1.64434 24.8024C1.64396 25.1154 1.38813 25.7411 1.05959 26.2275C0.475564 27.0615 0.475479 27.131 1.31254 27.9667C2.04041 28.6979 2.07659 28.9066 1.63904 29.1495C1.34732 29.323 0.982731 29.4965 0.836979 29.4963C0.290407 29.4956 -0.149688 31.8252 0.140164 33.1818C0.284942 33.9819 0.31888 36.0338 0.171094 37.7029C-0.0503312 39.9979 0.021401 40.937 0.348878 41.3199C0.603605 41.5984 1.07586 42.7814 1.43884 43.9295C1.76543 45.0428 2.27404 46.2954 2.56508 46.6783C2.85611 47.0612 3.07407 47.6179 3.07377 47.8613C3.07343 48.1395 3.47344 48.8008 3.94646 49.3578C4.45587 49.9496 5.00092 51.2023 5.25459 52.3502C5.47186 53.4634 5.7254 54.7156 5.83417 55.1679C5.90653 55.5853 6.52505 56.3511 7.1803 56.8736C7.79911 57.396 9.4734 58.9282 10.8564 60.2862C14.0592 63.3853 16.8991 65.1971 19.3763 65.7566C20.7241 66.0365 21.5617 66.4548 22.1803 67.1511C23.1991 68.3348 25.4571 69.346 28.2257 69.9058C29.3186 70.1158 30.994 70.6743 31.9408 71.1624C32.8877 71.6156 33.8712 71.895 34.09 71.7562C34.3088 71.6173 35.5478 71.4797 36.8961 71.4466C40.285 71.3116 44.294 70.621 44.9871 70.0306C45.2789 69.7527 46.0444 69.545 46.6274 69.5457C47.2104 69.5464 48.9963 69.1661 50.6002 68.6811C52.2041 68.1962 53.8807 67.8157 54.3544 67.8163C54.9009 67.8169 55.6669 67.1919 56.8347 65.7327C58.1849 64.1346 58.8414 63.6137 59.789 63.441C61.2468 63.1646 63.9824 60.9422 66.245 58.1627C67.0479 57.1204 68.1791 55.7655 68.69 55.1401C69.2374 54.48 69.749 53.2982 69.8956 52.5333C70.0059 51.7683 70.3712 51.0385 70.6628 50.9345C71.3919 50.6572 73.9151 43.3223 73.6614 42.1396C73.5165 41.4438 73.6628 41.0267 74.2099 40.5753C74.903 39.9849 74.9398 39.6719 74.7993 35.3594C74.6951 31.1165 74.6228 30.6643 73.6773 29.1329C73.0954 28.228 72.7685 27.3234 72.8781 27.1497C73.0241 26.9412 72.4797 25.0973 71.6806 23.0445C70.8815 20.9917 69.9734 18.6258 69.7194 17.756C69.2473 16.3991 69.0654 16.1903 68.0817 16.0847C67.1708 16.0141 66.8432 15.7354 66.5527 14.9352C66.3347 14.3785 65.6074 13.23 64.9525 12.4293C64.2611 11.6286 63.4972 10.6191 63.2791 10.1668C63.0245 9.74914 62.1509 8.98298 61.3135 8.4603C60.476 7.97241 59.1654 7.03183 58.4009 6.40491C57.673 5.74326 56.6534 5.22036 56.1797 5.21978C55.4509 5.21889 54.2491 4.69577 48.6046 1.83718C46.711 0.89589 38.805 0.0516084 37.5653 0.676085C36.9455 0.988324 36.5083 0.953018 35.3792 0.534318C33.7767 -0.128399 33.4123 -0.128843 31.0066 0.563768ZM44.7045 2.91052C58.6924 6.40526 67.428 14.2755 71.4571 27.0088C72.3647 29.7921 72.4365 30.6616 72.4669 35.6696C72.4957 41.9295 72.0924 43.946 69.9374 48.1862C68.0745 51.9051 63.0011 58.8891 60.8854 60.7297C56.6906 64.3414 51.331 67.0127 45.3899 68.3966C43.6039 68.8117 41.381 68.9829 37.1177 68.9777C31.7977 68.9712 30.9962 68.8659 28.0094 67.9928C17.3368 64.8847 8.85548 57.6755 4.89504 48.3852C2.89671 43.6531 2.53478 41.6356 2.54237 35.4105C2.55054 28.6985 3.10004 26.2996 5.94903 20.7039C7.59273 17.4369 7.70217 17.3327 8.3939 17.8204C9.12207 18.3082 9.12203 18.343 8.282 19.9417C7.8072 20.8453 7.51473 21.6448 7.58752 21.7145C7.66031 21.7841 8.02537 21.2281 8.39068 20.4635C9.08483 18.9689 9.66809 18.7609 10.3958 19.5965C10.7961 20.0491 10.723 20.2576 10.1392 20.9177C9.73783 21.3345 9.22689 21.9947 9.0078 22.377C8.16777 23.9757 5.93407 32.9802 5.82179 35.4145L5.67286 38.0226L6.00377 35.5886C6.55513 31.6594 8.78743 23.8026 9.84625 22.065C10.9051 20.3274 11.7071 20.0502 12.726 21.1295C13.3083 21.7562 13.2716 21.9301 11.6281 25.0232C9.98459 28.1511 8.55927 31.6271 8.5583 32.427C8.55804 32.6356 9.6172 30.6199 10.8594 27.9435C12.138 25.2673 13.3435 22.7648 13.599 22.3826C14.0007 21.6875 14.0007 21.6875 14.0362 22.4526C14.0356 22.9395 14.2175 23.1832 14.5091 23.0792C14.7279 22.9751 15.2015 23.0453 15.4928 23.2195C15.9297 23.4983 15.893 23.6721 15.3092 24.3322C14.5795 25.0964 14.5795 25.0964 15.3453 24.6452C16.0016 24.2634 16.3294 24.3682 18.1863 25.5529C20.0068 26.7375 20.2251 27.016 20.042 27.7808C19.8223 28.6152 19.8223 28.6152 20.3332 27.9899C20.8442 27.3297 20.8806 27.3298 21.9729 28.0614L23.0651 28.8278L22.0059 30.8436C21.4216 31.921 20.9465 33.0681 20.9461 33.3463C20.9458 33.6245 21.3838 32.999 21.8952 31.9564C23.1007 29.4887 23.4656 29.0718 24.0845 29.5246C24.4485 29.8381 24.3751 30.2205 23.7541 31.5413C23.1331 32.8273 22.9494 34.0443 22.8363 37.1741C22.7607 39.3649 22.7951 41.069 22.941 40.9301C23.0504 40.8259 23.1983 39.0872 23.2372 37.105C23.3132 34.5316 23.4972 33.0712 24.0088 31.8546C24.7397 30.0471 25.5416 29.8394 25.4303 31.4738C25.3564 32.3083 25.4292 32.378 25.7214 31.8567C25.9039 31.5439 26.3051 31.2662 26.5966 31.2665C27.0338 31.2671 27.1062 31.7193 26.9583 33.4232C26.8467 35.301 26.8467 35.3705 27.067 33.9797C27.4339 31.9283 27.8717 31.442 27.9062 33.0418C27.9778 34.0852 27.9778 34.1199 28.1246 33.2507C28.2715 32.2771 28.4903 32.1383 29.1821 32.5912C29.4734 32.7655 29.5088 33.5654 29.2517 35.2691C29.0679 36.5904 29.0296 38.1206 29.1018 38.6423C29.2105 39.1641 29.137 39.6857 28.9547 39.7898C28.5901 39.998 28.4457 38.8154 28.5212 36.6593C28.5589 35.6508 28.5589 35.6508 28.23 36.4851C28.0836 36.9718 27.9365 38.0497 27.8991 38.8843C27.8603 40.797 27.4234 40.4835 27.0982 38.2921C26.8451 36.6573 26.8451 36.6573 26.879 38.744C26.9132 40.5872 26.84 40.8305 26.1476 40.934C25.2 41.072 24.9103 39.611 25.0973 35.6118C25.2091 33.5601 25.1367 33.1775 24.9168 34.2205C24.5136 36.1676 24.4748 38.115 24.7641 39.9586C24.9812 41.2456 24.9078 41.6628 24.3972 42.0448C23.8865 42.4615 23.7408 42.4613 23.4498 42.0088C23.1952 41.626 23.1223 41.6607 23.1216 42.2171C23.1211 42.6344 22.9019 43.1558 22.6829 43.4337C22.2816 43.8506 22.318 43.8506 22.7921 43.5034C23.2662 43.191 23.9215 43.6439 26.7968 46.36C28.6895 48.136 30.6187 49.7728 31.1285 50.0169C31.8933 50.3656 31.8569 50.296 30.9468 49.6341C29.0172 48.2755 25.0865 44.5148 24.5775 43.5752C24.1411 42.8443 24.1414 42.6357 24.5789 42.3927C24.9436 42.1845 25.5624 42.7069 26.8357 44.343C29.3825 47.5456 33.6786 50.4721 35.7557 50.3703C36.1201 50.3708 35.6832 50.092 34.7726 49.8127C32.0044 48.8703 29.3103 46.9543 27.455 44.5177C26.4727 43.2297 25.6724 42.1159 25.6726 41.9768C25.6728 41.8376 26.001 41.5598 26.3657 41.3516C26.9855 41.0394 27.2767 41.3179 28.768 43.4412C29.7138 44.7638 31.1329 46.4001 32.0066 47.0619C33.8632 48.5596 37.1772 50.059 38.4161 50.0258C39.1085 49.9918 38.9628 49.9221 37.9429 49.6774C37.1779 49.5026 36.0488 49.1187 35.3933 48.8049C33.9002 48.0728 31.4975 46.2614 31.6072 45.9486C31.6438 45.8095 31.2438 45.1483 30.698 44.452C30.1523 43.7906 29.425 42.6073 29.0979 41.8418L28.5166 40.4848L30.4092 42.226C31.8652 43.5145 32.1201 43.6887 31.5016 42.8533C31.0287 42.2267 30.7379 41.6352 30.8474 41.531C31.1757 41.2184 32.9966 42.0205 35.3997 43.484C37.1474 44.599 37.9123 44.8434 38.8598 44.7402L40.0625 44.6026L38.7872 44.5315C37.5484 44.4952 35.1087 43.1359 36.2018 43.1024C36.8942 43.1033 36.4938 42.755 34.6003 41.7094C33.4715 41.0473 33.2529 41.0122 33.6896 41.4996C34.1625 42.0914 34.1261 42.0914 32.7785 41.5681C31.2489 40.9402 30.3023 40.3131 30.5576 40.07C30.6306 39.9657 31.1042 40.1054 31.5776 40.3494C32.233 40.698 32.1967 40.5588 31.2869 39.6883C29.831 38.2955 29.5046 37.0779 30.235 35.7224C30.5272 35.1316 30.7833 34.2625 30.7839 33.8104C30.7849 33.0105 30.8213 33.0105 31.6951 33.568C32.2049 33.8817 32.6414 34.4734 32.6409 34.8907C32.6766 35.482 32.7131 35.482 32.8594 34.9953C33.0424 34.3348 33.0424 34.3348 33.8437 34.614C34.2444 34.7536 34.4259 35.2754 34.4249 36.0753C34.4231 37.5707 34.6055 37.4318 34.8991 35.6933C35.0459 34.8241 34.9735 34.4067 34.682 34.4063C34.2448 34.371 31.3691 32.0027 31.5879 31.8291C31.6609 31.7596 32.0255 31.5514 32.4266 31.3084C33.1194 30.9267 33.083 30.8919 32.2811 31.1344C31.0054 31.4458 31.6987 30.612 33.1934 30.0226C34.8339 29.3638 36.1456 29.435 37.9302 30.2023C39.6419 30.9347 42.0804 33.1981 42.0794 34.0328C42.0424 34.5544 42.0424 34.5544 41.7151 34.0323C41.5332 33.7191 40.7689 33.0227 40.0043 32.5001L38.6209 31.5246L40.0039 32.8826C41.2776 34.2057 41.6776 34.8322 41.0948 34.6924C40.9126 34.6921 40.5117 34.7612 40.1471 34.9346C39.7826 35.0733 39.309 35.0032 38.9813 34.7593C38.5081 34.3762 38.4716 34.4109 38.6532 34.8633C38.8348 35.3504 38.689 35.385 37.5598 35.0706C36.8313 34.861 36.0662 34.8253 35.8839 34.9294C35.4098 35.2071 35.4071 37.4328 35.844 37.7116C36.0625 37.8162 36.0995 37.3989 35.9911 36.6684C35.7739 35.4857 35.8103 35.451 37.0128 35.4873C38.0695 35.4885 38.1423 35.5234 37.4861 35.8008C36.6112 36.1128 35.9908 36.8423 36.5739 36.843C36.756 36.8433 37.0478 36.6697 37.1573 36.4612C37.3033 36.2527 37.6314 36.1836 37.8863 36.2882C38.1413 36.3581 38.4692 36.3585 38.6151 36.2195C38.7246 36.0806 39.49 35.9772 40.2916 35.9434C41.4577 35.91 41.7126 36.0146 41.712 36.5711C41.7115 36.9536 41.5285 37.5794 41.273 37.9964C40.9078 38.6567 40.9442 38.6915 41.4183 38.3096C41.8925 37.9624 42.0382 37.9626 42.1835 38.3105C42.2926 38.5541 42.4025 38.0673 42.44 37.1979C42.4783 35.6678 42.4783 35.633 42.9874 36.5031C43.4965 37.3731 43.4965 37.3731 43.5339 36.5733C43.5344 36.156 43.717 35.8084 43.8992 35.8086C44.1178 35.8089 44.2989 36.7133 44.334 37.7915L44.4044 39.8086L44.5162 37.8265C44.6274 36.2269 44.8101 35.8098 45.3569 35.6365C45.7579 35.4979 46.2316 35.4985 46.4136 35.6378C46.5957 35.7424 46.8508 35.6731 46.9968 35.4646C47.1064 35.2909 47.0337 35.1169 46.8515 35.1167C46.6329 35.1164 46.4146 34.8379 46.415 34.4902C46.3792 33.9685 46.3428 33.9684 46.1963 34.5595C46.05 35.0462 45.7948 35.1502 44.9205 34.9752C44.3011 34.8701 43.5725 34.7649 43.3174 34.7646C43.0259 34.7643 42.8076 34.4858 42.808 34.1728C42.8084 33.825 41.8988 32.7458 40.7705 31.7359C39.6421 30.726 38.9508 29.8905 39.2423 29.8561C40.0076 29.8222 37.7491 29.2283 35.3811 28.8428C32.9766 28.4921 31.227 28.9769 30.2415 30.332C29.9495 30.749 29.5849 30.9572 29.4393 30.8179C29.0026 30.3653 30.6444 28.6632 31.9202 28.2822C32.9044 27.9704 33.0138 27.8662 32.431 27.7264C31.0467 27.4465 34.4727 26.7551 37.7158 26.6895C40.7767 26.6237 40.7767 26.6237 38.3355 26.5164C36.3679 26.4097 35.7851 26.2351 35.4214 25.713C35.2032 25.3301 34.7299 25.0166 34.3655 25.0161C32.908 25.0144 33.4918 24.3543 35.2412 24.0434C37.1364 23.7328 37.1364 23.698 34.2213 23.764C32.1807 23.7963 31.306 23.9343 31.4151 24.1779C31.4877 24.3866 31.1594 24.6645 30.6855 24.803C30.1753 24.9067 28.9718 25.7051 27.9505 26.5733C26.9656 27.4415 25.9445 28.1358 25.7623 28.1356C24.9243 28.1346 24.9252 27.3347 25.7279 26.4662L26.6035 25.5631L25.5823 26.327C24.5247 27.056 23.5045 27.02 23.5055 26.2201C23.5063 25.5593 26.716 22.955 28.4296 22.192C29.2316 21.8452 29.6328 21.5327 29.3049 21.5323C28.5032 21.5313 25.7318 23.3015 24.2724 24.7952C23.3239 25.733 22.8135 25.9758 22.2671 25.836C21.2471 25.5566 19.864 24.3029 19.8647 23.7117C19.8657 22.9118 23.842 19.1608 25.4827 18.3977C26.3212 18.0161 27.5969 17.7047 28.2893 17.7055C28.9816 17.7064 30.4395 17.3952 31.5331 16.9792C33.7204 16.182 34.0483 16.2171 42.7192 17.3754C45.3787 17.7611 48.038 18.286 48.6935 18.5998C49.3126 18.9136 49.7133 19.0184 49.6042 18.8444C49.1678 18.1483 46.1808 17.3796 41.736 16.8525C33.648 15.8341 33.7208 15.8342 31.3514 16.6312C30.1849 17.0471 28.5083 17.358 27.6702 17.357C25.7755 17.3547 24.0251 18.4307 21.2524 21.279L19.1363 23.4326L17.7171 21.8659C16.0432 20.0555 16.0069 19.9163 16.8826 18.9436C17.5029 18.2488 17.5029 18.2488 16.5184 18.8388C15.2786 19.5677 15.1328 19.5675 15.1337 18.8719C15.1352 17.62 22.7578 11.891 26.0022 10.7126C29.4288 9.49955 32.5265 9.19033 36.5705 9.64736C38.5015 9.89315 40.5053 10.139 41.0153 10.244L41.926 10.4538L41.0519 10.0701C40.5785 9.8609 38.6477 9.51078 36.7896 9.29985C32.6727 8.80796 28.8097 9.22058 25.4194 10.5032C23.1956 11.3699 16.0112 16.3691 15.0986 17.7243C14.6242 18.3497 14.5148 18.3843 14.1146 17.9317C13.7507 17.5139 13.9334 17.0621 15.2837 15.3596C16.1596 14.2131 17.7648 12.6153 18.8225 11.8167C19.9166 11.0529 21.1202 10.1502 21.5214 9.83768C21.9225 9.55996 21.558 9.66384 20.683 10.0801C19.1516 10.8781 15.6861 14.0386 14.1532 16.1234C13.3868 17.131 13.3867 17.1657 12.6223 16.504C12.1855 16.121 11.8582 15.6337 11.8585 15.3902C11.8591 14.8686 15.5434 11.604 17.5124 10.4588C18.3146 9.97289 19.6274 9.13984 20.4661 8.6192C21.3049 8.06379 22.7633 7.33525 23.7476 6.9539C24.7319 6.57255 25.2788 6.26022 24.9873 6.25987C23.3477 6.22309 17.0758 9.9366 13.7563 12.8886C11.896 14.5209 11.3125 14.8679 10.9122 14.5197C10.4753 14.2061 10.5485 13.9628 11.3512 13.0248C12.6283 11.6353 15.8016 8.96129 17.9167 7.57278C21.3446 5.35123 26.1202 3.54864 32.0976 2.30395C32.4985 2.2001 34.7214 2.13326 37.0534 2.10132C40.4787 2.07072 41.9724 2.24642 44.7045 2.91052ZM32.7987 25.0142C32.9078 25.1882 32.7983 25.362 32.5432 25.3617C32.2517 25.3613 31.7048 25.6041 31.3037 25.8471C30.7202 26.2984 30.8659 26.2986 32.2511 25.8482C33.5269 25.4324 34.0371 25.3983 34.8019 25.747C35.3118 25.9563 35.5665 26.2 35.3478 26.2693C35.1656 26.3386 34.2544 26.5462 33.416 26.7538C32.4683 26.9961 31.1922 27.6901 30.2437 28.5236C29.4048 29.2529 28.5659 29.8779 28.3838 29.8776C28.2016 29.8774 27.6554 29.5638 27.1457 29.1806L26.2356 28.5187L28.023 26.9211C29.0079 26.0529 30.3207 25.2199 30.9403 25.0467C32.4712 24.6313 32.5441 24.6314 32.7987 25.0142ZM28.5517 41.5629C29.1696 42.8504 28.8416 42.9196 28.0778 41.7015C27.7506 41.1099 27.6054 40.6576 27.7876 40.6578C27.9698 40.658 28.2972 41.0757 28.5517 41.5629ZM31.1705 45.4264C31.6436 45.9834 31.6071 46.0181 31.0611 45.5654C30.4422 45.1125 30.2603 44.8341 30.5518 44.8344C30.6247 44.8345 30.9159 45.1131 31.1705 45.4264Z" fill="white"/>
<path d="M35.01 4.49845L32.4591 4.70401L35.2647 4.77698C36.7951 4.81362 38.1799 4.71098 38.2894 4.50245C38.399 4.29392 38.2898 4.18946 38.0347 4.22392C37.7796 4.25839 36.4313 4.36108 35.01 4.49845Z" fill="white"/>
<path d="M41.678 4.75001C41.8965 4.81983 42.3338 4.82036 42.589 4.75112C42.8077 4.64705 42.6256 4.57728 42.1155 4.57665C41.6053 4.57603 41.4231 4.64536 41.678 4.75001Z" fill="white"/>
<path d="M30.9282 5.08468C31.2561 5.15463 31.7662 5.15525 32.0213 5.08601C32.2401 4.98195 31.9851 4.91209 31.3657 4.91133C30.7827 4.91062 30.564 4.97991 30.9282 5.08468Z" fill="white"/>
<path d="M28.9238 5.43001C29.1787 5.53464 29.5067 5.50027 29.6162 5.39607C29.762 5.29192 29.5435 5.18733 29.1427 5.22161C28.7419 5.22113 28.6324 5.32532 28.9238 5.43001Z" fill="white"/>
<path d="M45.0293 5.55397C45.3205 5.72821 45.7576 5.90263 45.9398 5.90285C46.1584 5.90312 46.0493 5.7291 45.758 5.55486C45.4667 5.38062 45.0661 5.20624 44.8475 5.20598C44.6653 5.20576 44.738 5.37973 45.0293 5.55397Z" fill="white"/>
<path d="M26.2633 5.87887C25.3519 6.26031 26.2993 6.26147 27.5386 5.88043C28.2676 5.67265 28.3042 5.60314 27.7211 5.60243C27.3203 5.60194 26.6643 5.70547 26.2633 5.87887Z" fill="white"/>
<path d="M46.5226 6.00789C46.5954 6.07754 48.3069 6.94905 50.3098 7.92525C52.3127 8.93622 53.6238 9.49425 53.2233 9.18077C52.4224 8.58859 47.0328 5.90418 46.632 5.90369C46.4863 5.90352 46.4497 5.97303 46.5226 6.00789Z" fill="white"/>
<path d="M29.7239 6.57864C28.0838 6.85486 22.324 9.00402 22.5787 9.28255C22.6515 9.35219 23.891 8.9016 25.3492 8.31217C29.2865 6.68244 31.4366 6.4764 38.0676 7.07569C44.1885 7.63958 46.5563 8.1989 48.8503 9.558C49.6514 10.0111 51.2172 10.8476 52.3097 11.3706C54.3854 12.3817 55.6958 13.5309 60.4632 18.4751C63.9568 22.1657 66.2847 25.5419 67.2286 28.36C67.5916 29.5081 67.9188 30.1693 67.9191 29.8563C67.9569 28.7782 66.5033 25.5422 65.0848 23.4538C62.7932 20.1472 56.7886 13.8452 54.3856 12.2426C51.2181 10.1173 46.156 7.78108 43.861 7.32618C41.8573 6.97597 33.3682 6.20053 32.0927 6.26854C31.6919 6.30282 30.635 6.44064 29.7239 6.57864Z" fill="white"/>
<path d="M31.1037 10.6492C31.3587 10.7539 31.6867 10.7195 31.7961 10.6153C31.942 10.5112 31.7235 10.4066 31.3226 10.4408C30.9218 10.4404 30.8124 10.5446 31.1037 10.6492Z" fill="white"/>
<path d="M55.2257 10.5743C55.2256 10.6438 55.5168 10.9224 55.8809 11.1663C56.4269 11.6191 56.4634 11.5843 55.9904 11.0273C55.5173 10.4703 55.226 10.2961 55.2257 10.5743Z" fill="white"/>
<path d="M40.9407 11.7045C41.1592 11.7744 41.5965 11.7749 41.8516 11.7056C42.0704 11.6016 41.8883 11.5318 41.3782 11.5312C40.868 11.5306 40.6858 11.5999 40.9407 11.7045Z" fill="white"/>
<path d="M57.3371 12.3505C57.7736 12.9075 59.593 14.9615 61.4126 16.8765C65.4521 21.0894 67.9257 24.5701 68.6151 26.9358C68.869 27.9099 69.1937 30.5881 69.3002 32.8835C69.4417 36.3962 69.3305 37.9263 68.4869 42.4462C67.4597 48.1137 66.5458 50.5469 64.7579 52.5271C64.1741 53.1871 63.2982 54.2989 62.8237 54.9591C60.1958 58.5727 58.8097 59.7534 53.3401 62.9115C49.6937 65.0284 49.8393 65.2025 53.704 63.2945C57.4959 61.3864 59.028 60.0667 63.2244 55.0987C67.2385 50.2696 67.5307 49.6439 68.8511 42.6206C70.2814 35.0061 69.9983 28.1547 68.0714 24.6051C67.1261 22.8303 62.3961 17.1211 59.3755 14.0918C57.8469 12.5598 56.937 11.7588 57.3371 12.3505Z" fill="white"/>
<path d="M23.3388 13.4915C22.7554 13.8385 21.5883 14.7065 20.7858 15.4359C19.5091 16.5472 19.6185 16.4778 21.6972 15.0545C23.0101 14.1518 24.2136 13.2839 24.4325 13.1103C25.0161 12.6241 24.4693 12.7973 23.3388 13.4915Z" fill="white"/>
<path d="M29.2783 13.4292C29.5332 13.5338 29.8612 13.4994 29.9707 13.3952C30.1165 13.2911 29.898 13.1865 29.4972 13.2208C29.0964 13.2203 28.9869 13.3245 29.2783 13.4292Z" fill="white"/>
<path d="M35.655 13.4369C35.9829 13.5069 36.493 13.5075 36.7482 13.4383C36.9669 13.3342 36.7119 13.2643 36.0925 13.2636C35.5095 13.2629 35.2908 13.3322 35.655 13.4369Z" fill="white"/>
<path d="M27.8203 13.7752C28.0752 13.8798 28.4032 13.8455 28.5127 13.7413C28.6585 13.6371 28.44 13.5325 28.0392 13.5668C27.6384 13.5663 27.5289 13.6705 27.8203 13.7752Z" fill="white"/>
<path d="M38.0229 13.7876C38.2779 13.8923 38.6059 13.8579 38.7153 13.7537C38.8612 13.6495 38.6427 13.5449 38.2418 13.5792C37.841 13.5787 37.7315 13.6829 38.0229 13.7876Z" fill="white"/>
<path d="M34.742 15.1747C35.3614 15.245 36.4545 15.2463 37.1105 15.1776C37.73 15.1088 37.22 15.0386 35.9082 15.037C34.5964 15.0354 34.0862 15.1043 34.742 15.1747Z" fill="white"/>
<path d="M52.3052 15.0918C52.305 15.1961 52.6327 15.4399 53.0332 15.6491C53.4338 15.8582 53.7617 15.9282 53.7618 15.8586C53.7619 15.7543 53.4342 15.5105 53.0337 15.3013C52.6331 15.0922 52.3052 15.0222 52.3052 15.0918Z" fill="white"/>
<path d="M31.0976 15.518C31.3526 15.6227 31.6806 15.5883 31.79 15.4841C31.9359 15.3799 31.7174 15.2753 31.3165 15.3096C30.9157 15.3091 30.8063 15.4133 31.0976 15.518Z" fill="white"/>
<path d="M38.7495 15.5274C38.9681 15.5972 39.4053 15.5977 39.6605 15.5285C39.8792 15.4244 39.6971 15.3546 39.187 15.354C38.6769 15.3534 38.4946 15.4227 38.7495 15.5274Z" fill="white"/>
<path d="M28.9111 15.8631C29.166 15.9678 29.494 15.9334 29.6035 15.8292C29.7494 15.725 29.5309 15.6204 29.13 15.6547C28.7292 15.6542 28.6197 15.7584 28.9111 15.8631Z" fill="white"/>
<path d="M40.5713 15.8773C40.7899 15.9471 41.2271 15.9477 41.4823 15.8784C41.701 15.7744 41.5189 15.7046 41.0088 15.704C40.4987 15.7034 40.3164 15.7727 40.5713 15.8773Z" fill="white"/>
<path d="M44.0324 16.2293C44.3602 16.2993 44.9432 16.3 45.3077 16.2309C45.6358 16.1269 45.3443 16.057 44.652 16.0562C43.9597 16.0553 43.6681 16.1245 44.0324 16.2293Z" fill="white"/>
<path d="M47.2387 16.3028C46.947 16.5111 47.129 16.6504 47.8211 16.7904C48.3675 16.9301 49.4237 17.3488 50.1155 17.8017C51.3535 18.5335 52.7376 19.0221 52.0824 18.4649C51.0267 17.5942 47.6398 16.0946 47.2387 16.3028Z" fill="white"/>
<path d="M54.4898 16.3812C54.781 16.6945 56.5646 18.2269 58.4574 19.8637C60.3502 21.4658 62.4973 23.7289 63.2976 24.8427C64.0614 25.9913 64.6799 26.7572 64.6801 26.5485C64.6811 25.7486 60.9699 21.2231 59.0042 19.6209C56.7473 17.775 53.5436 15.4758 54.4898 16.3812Z" fill="white"/>
<path d="M18.3786 17.2414C17.9043 17.7972 17.9407 17.832 18.5242 17.3806C18.8525 17.1376 19.1443 16.8597 19.1444 16.7902C19.1447 16.512 18.853 16.6855 18.3786 17.2414Z" fill="white"/>
<path d="M20.309 17.9393C19.36 19.2596 19.0679 19.7809 19.2501 19.7812C19.3229 19.7812 19.8338 19.1559 20.3813 18.3915C21.4399 16.8278 21.404 16.4452 20.309 17.9393Z" fill="white"/>
<path d="M34.5558 18.3044C34.8837 18.3744 35.4667 18.3751 35.8311 18.306C36.1592 18.202 35.8678 18.1321 35.1755 18.1313C34.4831 18.1304 34.1915 18.1996 34.5558 18.3044Z" fill="white"/>
<path d="M37.8352 18.3084C38.163 18.3784 38.6732 18.379 38.9283 18.3097C39.1471 18.2057 38.8921 18.1358 38.2727 18.1351C37.6896 18.1343 37.4709 18.2036 37.8352 18.3084Z" fill="white"/>
<path d="M31.7132 18.7531C30.8018 19.1345 31.7492 19.1356 32.9886 18.7546C33.7176 18.5468 33.7541 18.4773 33.1711 18.4766C32.7703 18.4761 32.1143 18.5797 31.7132 18.7531Z" fill="white"/>
<path d="M55.7618 19.1301C56.1257 19.5131 56.4897 19.8265 56.599 19.8267C56.7084 19.8268 56.4901 19.5135 56.1262 19.1306C55.7623 18.7476 55.3983 18.4341 55.289 18.434C55.1797 18.4339 55.3979 18.7471 55.7618 19.1301Z" fill="white"/>
<path d="M40.9319 19.0077C41.1868 19.1123 41.5148 19.078 41.6242 18.9738C41.7701 18.8696 41.5516 18.765 41.1507 18.7993C40.7499 18.7988 40.6405 18.903 40.9319 19.0077Z" fill="white"/>
<path d="M52.665 18.8829C52.6649 18.9872 53.684 19.8927 54.9581 20.9028C56.1958 21.9476 56.9967 22.505 56.7056 22.1569C56.0871 21.4258 52.6653 18.6394 52.665 18.8829Z" fill="white"/>
<path d="M30 19.3421C30.2549 19.4468 30.5829 19.4124 30.6923 19.3082C30.8382 19.2041 30.6197 19.0995 30.2189 19.1337C29.818 19.1333 29.7086 19.2375 30 19.3421Z" fill="white"/>
<path d="M43.1175 19.3581C43.336 19.428 43.7733 19.4285 44.0284 19.3592C44.2472 19.2552 44.0651 19.1854 43.5549 19.1848C43.0448 19.1842 42.8625 19.2535 43.1175 19.3581Z" fill="white"/>
<path d="M51.0601 20.1677C51.6788 20.8292 52.7703 22.1869 53.4614 23.1267C54.189 24.1013 55.1715 25.1806 55.6448 25.5637C56.3728 26.1906 56.3728 26.1211 55.5359 25.2158C55.0264 24.624 54.0077 23.3708 53.3165 22.431C52.589 21.4563 51.5336 20.3074 50.9512 19.8198C49.9684 18.984 49.9684 18.984 51.0601 20.1677Z" fill="white"/>
<path d="M28.542 19.6882C28.7969 19.7928 29.1249 19.7584 29.2343 19.6542C29.3802 19.5501 29.1617 19.4455 28.7609 19.4798C28.36 19.4793 28.2506 19.5835 28.542 19.6882Z" fill="white"/>
<path d="M46.1773 20.127C48.654 21.069 50.4017 22.1492 52.44 23.9601C53.8231 25.2137 54.0416 25.3183 53.496 24.5178C53.0595 23.926 52.4045 23.1949 52.0406 22.8467C51.0213 22.0108 45.8138 19.4658 45.085 19.4649C44.757 19.4992 45.2304 19.778 46.1773 20.127Z" fill="white"/>
<path d="M53.609 21.5619C54.555 22.7107 55.392 23.5811 55.5014 23.5117C55.6473 23.338 52.2997 19.4737 52.0082 19.4733C51.9354 19.4732 52.663 20.4131 53.609 21.5619Z" fill="white"/>
<path d="M20.1968 20.3735C19.7224 20.9294 19.7588 20.9642 20.3423 20.5128C20.6706 20.2698 20.9624 19.9919 20.9625 19.9224C20.9628 19.6441 20.6711 19.8177 20.1968 20.3735Z" fill="white"/>
<path d="M26.7195 20.0337C26.9381 20.1035 27.3753 20.1041 27.6305 20.0348C27.8492 19.9307 27.6671 19.861 27.157 19.8603C26.6468 19.8597 26.4646 19.9291 26.7195 20.0337Z" fill="white"/>
<path d="M33.3507 20.6678C31.7103 21.257 32.2932 21.2925 34.8082 20.6696C36.2297 20.3583 36.4849 20.2195 35.7197 20.2186C35.1367 20.2179 34.0433 20.4252 33.3507 20.6678Z" fill="white"/>
<path d="M38.2699 20.5346C40.1278 20.8847 41.6218 20.8865 40.0918 20.5021C39.509 20.3623 38.5253 20.222 37.9059 20.2212C36.9949 20.2201 37.0313 20.2897 38.2699 20.5346Z" fill="white"/>
<path d="M23.6932 21.5254C23.1095 22.0811 22.7081 22.6023 22.8173 22.672C22.8901 22.7416 23.4372 22.2902 23.9846 21.6301C25.2981 20.2058 25.116 20.1361 23.6932 21.5254Z" fill="white"/>
<path d="M42.3868 21.0961C43.0426 21.1664 44.0264 21.1676 44.573 21.0988C45.1197 21.0299 44.5732 20.9597 43.3708 20.9582C42.1683 20.9567 41.731 21.0257 42.3868 21.0961Z" fill="white"/>
<path d="M30.3616 21.4292C30.5801 21.4991 31.0174 21.4996 31.2726 21.4303C31.4913 21.3263 31.3092 21.2565 30.7991 21.2559C30.2889 21.2553 30.1067 21.3246 30.3616 21.4292Z" fill="white"/>
<path d="M37.1749 21.9244C39.0328 22.2745 40.5268 22.2763 38.9969 21.8919C38.414 21.752 37.4304 21.6117 36.8109 21.611C35.9 21.6099 35.9363 21.6795 37.1749 21.9244Z" fill="white"/>
<path d="M49.7444 23.4004C50.8362 24.5146 51.7825 25.3851 51.8554 25.3852C52.2198 25.3857 49.818 22.8092 48.8714 22.1821C48.1068 21.6943 48.3978 22.0772 49.7444 23.4004Z" fill="white"/>
<path d="M34.3691 22.1296C34.6241 22.2343 34.952 22.1999 35.0615 22.0957C35.2074 21.9916 34.9889 21.887 34.588 21.9213C34.1872 21.9208 34.0777 22.025 34.3691 22.1296Z" fill="white"/>
<path d="M6.63774 23.6608C5.87029 25.5031 4.44264 30.8918 4.62462 31.0659C4.69737 31.1703 5.39206 29.2236 6.12375 26.8249C7.47742 22.3403 7.6977 20.9843 6.63774 23.6608Z" fill="white"/>
<path d="M44.2065 22.8372C44.4615 22.9418 44.7894 22.9074 44.8989 22.8032C45.0448 22.6991 44.8263 22.5945 44.4254 22.6288C44.0246 22.6283 43.9151 22.7325 44.2065 22.8372Z" fill="white"/>
<path d="M58.7074 24.0025C60.2359 25.5693 61.036 26.8223 61.9805 29.1882C62.4529 30.3017 62.4892 30.3365 62.3082 29.3973C61.9097 27.5189 60.7096 25.5699 58.9625 24.0028L57.2153 22.4357L58.7074 24.0025Z" fill="white"/>
<path d="M46.4285 23.3963C48.1404 23.9201 52.5441 28.2726 54.2169 31.0915L54.835 32.1704L54.5812 31.1268C54.3637 30.1875 54.4002 30.118 54.9463 30.536C56.1112 31.4764 56.7641 33.9464 56.5424 36.4153C56.2476 39.1275 54.2016 43.6113 52.5601 45.1047C51.94 45.6256 50.5899 47.1889 49.495 48.5787C48.3272 50.0726 46.9774 51.3578 46.1753 51.7741C45.4096 52.1557 44.972 52.4682 45.1906 52.5032C46.065 52.5391 48.1441 50.8027 49.8229 48.6834C50.8082 47.4326 52.1219 45.8692 52.815 45.2093C53.4717 44.5494 54.5668 42.9857 55.2242 41.7346C56.3929 39.5102 56.4294 39.4755 56.6832 40.5191C56.8282 41.1105 56.939 39.8587 56.9783 37.5634C57.0198 33.3555 56.512 31.4421 55.0559 30.2927C54.6919 30.014 53.9281 28.8655 53.3464 27.7519C52.1467 25.4899 51.6736 25.0372 52.5093 26.9858C52.7999 27.6817 52.9814 28.3079 52.9084 28.3773C52.8354 28.4816 51.8527 27.5414 50.7246 26.3228C48.796 24.1991 46.7935 22.9099 45.6638 22.9781C45.4087 23.0125 45.7364 23.1868 46.4285 23.3963Z" fill="white"/>
<path d="M40.197 23.8756C40.4519 23.9802 40.7799 23.9459 40.8894 23.8417C41.0352 23.7375 40.8167 23.6329 40.4159 23.6672C40.0151 23.6667 39.9056 23.7709 40.197 23.8756Z" fill="white"/>
<path d="M42.2733 24.4693C42.8925 24.7135 44.2401 25.2021 45.3328 25.5512C47.664 26.2843 49.5566 28.0255 50.9016 30.6702C52.8646 34.5328 52.4626 35.4365 50.3169 32.0605C49.6259 30.9468 48.68 29.7285 48.2432 29.3454C47.6244 28.823 47.697 29.0317 48.5336 30.25C50.6433 33.3477 51.2614 34.4265 50.8242 34.426C50.5691 34.4257 50.1322 34.1469 49.8046 33.7988C49.4407 33.4506 49.3315 33.3809 49.4769 33.6245C49.6589 33.8334 49.6948 34.216 49.5488 34.4244C49.4393 34.5982 49.512 34.7722 49.7306 34.7724C49.9492 34.7727 50.3858 35.2949 50.6766 35.8865L51.2218 37.0348L50.9682 35.8173C50.7511 34.5998 50.7511 34.5998 51.4791 35.2267C52.2071 35.8535 52.2071 35.8535 52.0257 35.1578C51.663 33.801 52.6096 34.4282 53.737 36.238C55.3734 38.9873 55.0465 38.1175 52.6839 33.2806C49.9214 27.6781 48.7205 26.4247 45.0055 25.0291C42.1646 24.0171 40.1246 23.5625 42.2733 24.4693Z" fill="white"/>
<path d="M56.484 24.6953C56.8479 25.0783 57.2119 25.3918 57.3212 25.3919C57.4305 25.392 57.2123 25.0788 56.8484 24.6958C56.4844 24.3128 56.1204 23.9993 56.0111 23.9992C55.9018 23.9991 56.1201 24.3123 56.484 24.6953Z" fill="white"/>
<path d="M38.8837 25.0216C41.9077 25.3731 44.6029 26.3154 46.0954 27.5692L47.0054 28.3354L46.1685 27.3954C44.822 25.9679 42.0175 24.9907 38.8475 24.8477L36.0784 24.7052L38.8837 25.0216Z" fill="white"/>
<path d="M17.384 26.1431C16.8731 26.7337 16.214 29.3759 16.2488 30.7323C16.2845 31.2888 16.5039 30.7326 16.724 29.4461C16.9807 28.1597 17.3831 26.8734 17.675 26.5608C17.9304 26.2829 18.0765 25.9353 17.9673 25.8656C17.8581 25.7611 17.6029 25.8651 17.384 26.1431Z" fill="white"/>
<path d="M42.0514 27.1121C42.7071 27.252 44.018 27.9144 44.9647 28.5068C46.5667 29.5868 46.6031 29.5869 45.7297 28.6816C44.7107 27.6023 42.8534 26.7653 41.6509 26.7987C41.0314 26.8327 41.1771 26.9024 42.0514 27.1121Z" fill="white"/>
<path d="M36.3666 27.3486C36.9131 27.4189 37.7148 27.4198 38.1885 27.3509C38.6259 27.2818 38.1887 27.2118 37.1684 27.2105C36.1846 27.2093 35.7837 27.2784 36.3666 27.3486Z" fill="white"/>
<path d="M64.7519 27.6614C64.7514 28.044 64.8963 28.7397 65.0415 29.2268C65.2592 29.9226 65.3321 29.9574 65.3327 29.401C65.3332 29.0185 65.1883 28.3227 65.0431 27.8357C64.8254 27.1399 64.7525 27.105 64.7519 27.6614Z" fill="white"/>
<path d="M33.6335 27.6931C33.8885 27.7977 34.2164 27.7633 34.3259 27.6591C34.4718 27.555 34.2533 27.4504 33.8524 27.4847C33.4516 27.4842 33.3421 27.5884 33.6335 27.6931Z" fill="white"/>
<path d="M40.0102 27.7009C40.3381 27.7708 40.8482 27.7714 41.1034 27.7022C41.3221 27.5981 41.0672 27.5283 40.4477 27.5275C39.8647 27.5268 39.646 27.5961 40.0102 27.7009Z" fill="white"/>
<path d="M42.8153 28.3998C44.4537 29.4103 45.8003 30.7335 46.8551 32.2998C47.4371 33.1699 47.9101 33.6921 47.9104 33.4835C47.9116 32.4749 43.3261 27.8092 42.3058 27.808C42.0872 27.8077 42.342 28.0515 42.8153 28.3998Z" fill="white"/>
<path d="M35.0903 28.3904C35.5275 28.4605 36.2562 28.4614 36.73 28.3924C37.1674 28.3234 36.8031 28.2534 35.8921 28.2523C34.9812 28.2512 34.6167 28.3203 35.0903 28.3904Z" fill="white"/>
<path d="M38.3692 28.7422C38.5877 28.812 39.025 28.8125 39.2801 28.7433C39.4989 28.6392 39.3168 28.5694 38.8066 28.5688C38.2965 28.5682 38.1142 28.6375 38.3692 28.7422Z" fill="white"/>
<path d="M57.0593 30.9559C58.2591 33.1135 58.2952 33.357 58.2907 37.0434C58.2518 39.1299 58.1396 41.4251 57.9931 42.0857C57.7732 43.1287 57.8095 43.1983 58.2111 42.6076C58.5031 42.1559 58.651 40.4172 58.6545 37.5655C58.6595 33.4618 58.587 33.1139 57.6054 31.3043C57.0601 30.2603 56.4055 29.2162 56.2235 29.0421C56.0051 28.8332 56.4049 29.7031 57.0593 30.9559Z" fill="white"/>
<path d="M41.0285 29.3366C41.3925 29.6501 43.5412 30.5917 43.5414 30.4525C43.5417 30.2439 41.5388 29.1981 41.138 29.1976C40.9923 29.1975 40.9557 29.267 41.0285 29.3366Z" fill="white"/>
<path d="M63.9837 30.1297C63.9832 30.5122 64.0924 30.6167 64.202 30.3386C64.3117 30.0953 64.2756 29.7823 64.1664 29.6778C64.0573 29.5386 63.9477 29.7471 63.9837 30.1297Z" fill="white"/>
<path d="M40.2622 30.0312C40.2621 30.1008 40.517 30.275 40.8448 30.3797C41.1362 30.4844 41.282 30.4498 41.1729 30.241C40.9547 29.893 40.2626 29.753 40.2622 30.0312Z" fill="white"/>
<path d="M47.0028 30.5959C47.3667 30.9789 47.7307 31.2923 47.84 31.2924C47.9493 31.2926 47.7311 30.9793 47.3672 30.5963C47.0032 30.2133 46.6392 29.8999 46.5299 29.8998C46.4206 29.8996 46.6389 30.2129 47.0028 30.5959Z" fill="white"/>
<path d="M18.2886 31.4303C17.4119 33.1681 17.5573 33.4465 18.4338 31.8478C18.8356 31.0832 19.1279 30.4228 19.0551 30.3531C18.9458 30.2835 18.6173 30.7699 18.2886 31.4303Z" fill="white"/>
<path d="M59.9384 30.4377C59.9382 30.6116 60.1199 31.0292 60.3017 31.3076C60.4836 31.586 60.6657 31.6558 60.6659 31.4819C60.6661 31.2733 60.4844 30.8905 60.3026 30.6121C60.1207 30.3336 59.9387 30.2291 59.9384 30.4377Z" fill="white"/>
<path d="M12.2764 31.423C12.2757 31.9794 12.3483 32.1882 12.458 31.8405C12.5313 31.5276 12.5319 31.0408 12.4593 30.7972C12.3502 30.5884 12.2771 30.8318 12.2764 31.423Z" fill="white"/>
<path d="M33.6297 30.823C33.8482 30.8928 34.2855 30.8934 34.5406 30.8241C34.7594 30.7201 34.5773 30.6503 34.0671 30.6497C33.557 30.649 33.3747 30.7184 33.6297 30.823Z" fill="white"/>
<path d="M42.8468 32.2601C43.465 33.2694 44.0835 34.07 44.1564 34.0701C44.4114 34.0704 42.6658 31.2513 42.1562 30.8682C41.9014 30.6244 42.1921 31.2855 42.8468 32.2601Z" fill="white"/>
<path d="M44.8877 32.0539C45.4332 32.924 45.9425 33.6202 46.0154 33.5507C46.2343 33.3771 45.0706 31.4282 44.4518 30.9405C44.1241 30.6619 44.3057 31.1838 44.8877 32.0539Z" fill="white"/>
<path d="M65.4397 31.1748C65.4393 31.5573 65.5484 31.6618 65.6581 31.3837C65.7677 31.1404 65.7317 30.8273 65.6225 30.7229C65.5133 30.5836 65.4037 30.7922 65.4397 31.1748Z" fill="white"/>
<path d="M67.9879 33.1254C67.9861 34.586 67.765 36.6028 67.5452 37.5763C66.9223 40.3925 67.3596 40.393 68.0918 37.5422C68.6044 35.491 68.6421 34.5173 68.3892 32.7085L68.0276 30.4476L67.9879 33.1254Z" fill="white"/>
<path d="M10.8542 32.2907C10.8531 33.1601 10.9256 33.508 10.999 33.056C11.0724 32.6387 11.0733 31.9432 11.0009 31.491C10.9286 31.0736 10.8553 31.4213 10.8542 32.2907Z" fill="white"/>
<path d="M37.3462 31.071C37.3461 31.1405 37.601 31.3147 37.9288 31.4195C38.2202 31.5241 38.366 31.4896 38.2569 31.2808C38.0387 30.9327 37.3465 30.7928 37.3462 31.071Z" fill="white"/>
<path d="M64.3462 31.5212C64.3458 31.9037 64.4549 32.0082 64.5646 31.7301C64.6742 31.4868 64.6381 31.1738 64.529 31.0693C64.4198 30.9301 64.3102 31.1386 64.3462 31.5212Z" fill="white"/>
<path d="M47.9122 31.7794C47.9121 31.8489 48.2033 32.1275 48.5674 32.3714C49.1134 32.8242 49.1499 32.7894 48.6769 32.2324C48.2039 31.6754 47.9126 31.5012 47.9122 31.7794Z" fill="white"/>
<path d="M59.2799 32.6974C59.2793 33.1843 59.352 33.3583 59.4616 33.115C59.5347 32.9064 59.5353 32.4891 59.4627 32.2456C59.3536 32.0368 59.2805 32.2106 59.2799 32.6974Z" fill="white"/>
<path d="M65.8736 33.9227C65.8722 35.0703 65.9445 35.4877 66.0182 34.8618C66.0918 34.2359 66.093 33.297 66.0207 32.7752C65.9485 32.2535 65.875 32.775 65.8736 33.9227Z" fill="white"/>
<path d="M15.3689 35.3218C14.7089 38.6944 14.6339 40.4331 15.1063 41.5118C15.3243 41.9642 15.3612 41.6512 15.2167 40.5729C15.1086 39.6338 15.2931 37.7213 15.6596 35.9829C15.9895 34.3488 16.21 32.8189 16.1374 32.6101C16.0648 32.4014 15.7353 33.6182 15.3689 35.3218Z" fill="white"/>
<path d="M28.6711 33.3557C28.6705 33.8426 28.7431 34.0165 28.8527 33.7732C28.9259 33.5647 28.9264 33.1473 28.8538 32.9038C28.7447 32.695 28.6716 32.8688 28.6711 33.3557Z" fill="white"/>
<path d="M64.7795 34.7908C64.7782 35.8341 64.8506 36.2863 64.9241 35.7299C64.9976 35.2084 64.9987 34.3737 64.9265 33.8172C64.8542 33.2954 64.7808 33.7475 64.7795 34.7908Z" fill="white"/>
<path d="M55.2341 33.7358C55.2338 34.014 55.3789 34.5706 55.5606 34.9534C55.7422 35.4057 55.8879 35.4407 55.8883 35.1277C55.8887 34.8495 55.7436 34.2929 55.5619 33.9101C55.3802 33.4578 55.2345 33.4228 55.2341 33.7358Z" fill="white"/>
<path d="M8.22722 35.0696C8.22616 35.9391 8.36984 37.6433 8.5505 38.8955C8.94848 41.2261 10.654 47.0707 10.9093 46.8276C10.9822 46.7929 10.6196 45.4013 10.1478 43.7662C9.63971 42.1311 9.02386 39.1743 8.77125 37.1569C8.44615 34.8265 8.26489 34.0611 8.22722 35.0696Z" fill="white"/>
<path d="M59.6418 34.7845C59.641 35.4453 59.7135 35.7236 59.8232 35.3759C59.8965 35.063 59.8972 34.5066 59.8247 34.1587C59.7158 33.8456 59.6426 34.1237 59.6418 34.7845Z" fill="white"/>
<path d="M13.7994 37.3369C13.7971 39.2497 13.8327 39.98 13.9069 38.9716C13.9811 37.9631 13.983 36.3982 13.9111 35.4939C13.8393 34.5896 13.8017 35.4242 13.7994 37.3369Z" fill="white"/>
<path d="M20.6167 34.5979C20.6163 34.9804 20.7254 35.0849 20.8351 34.8068C20.9447 34.5635 20.9087 34.2504 20.7995 34.146C20.6903 34.0067 20.5808 34.2153 20.6167 34.5979Z" fill="white"/>
<path d="M47.7632 34.5962C47.6535 34.909 47.7626 35.1178 48.0905 35.1182C48.3456 35.1185 48.673 35.5362 48.7452 36.058L48.8898 37.0319L48.9639 36.0583C49.0018 34.8759 48.1286 33.762 47.7632 34.5962Z" fill="white"/>
<path d="M3.99743 37.4989C4.10319 40.4203 5.11697 45.7424 5.48177 45.3951C5.59117 45.3257 5.37403 44.1082 5.04782 42.6819C4.75806 41.2557 4.36024 38.7861 4.18005 37.1513L3.8557 34.1949L3.99743 37.4989Z" fill="white"/>
<path d="M20.0672 36.8925C19.9569 37.727 19.9918 38.9442 20.1732 39.6052C20.4635 40.6489 20.5002 40.4055 20.5394 38.1103C20.5777 36.6497 20.5063 35.4324 20.4334 35.4323C20.3605 35.4322 20.2139 36.0928 20.0672 36.8925Z" fill="white"/>
<path d="M61.8618 37.0477C61.8607 37.9867 61.9331 38.3693 62.0067 37.813C62.0802 37.2914 62.0811 36.5263 62.0088 36.0742C61.9364 35.6567 61.863 36.074 61.8618 37.0477Z" fill="white"/>
<path d="M55.9595 36.3798C55.959 36.7623 56.0682 36.8668 56.1779 36.5887C56.2875 36.3454 56.2514 36.0324 56.1422 35.9279C56.0331 35.7886 55.9235 35.9972 55.9595 36.3798Z" fill="white"/>
<path d="M17.0415 38.2103C17.0402 39.2536 17.1125 39.7058 17.1861 39.1495C17.2596 38.6279 17.2606 37.7933 17.1884 37.2367C17.1162 36.715 17.0427 37.167 17.0415 38.2103Z" fill="white"/>
<path d="M46.4834 38.2462C46.482 39.3591 46.5545 39.6374 46.8101 39.2551C46.9926 38.9424 47.0299 38.2816 46.812 37.6902C46.5216 36.7508 46.5216 36.7856 46.4834 38.2462Z" fill="white"/>
<path d="M49.0343 37.9711C49.0336 38.5275 48.8146 38.875 48.5596 38.8051C48.3046 38.7701 48.1953 38.7699 48.3774 38.8397C48.523 38.9442 48.6319 39.3269 48.6678 39.7443C48.6669 40.4746 48.7033 40.4746 49.0323 39.6404C49.215 39.1885 49.3253 38.3888 49.253 37.9018L49.1083 37.0322L49.0343 37.9711Z" fill="white"/>
<path d="M52.7865 38.7755C52.8214 39.958 52.6751 40.4795 52.3836 40.4443C52.1286 40.3745 52.0191 40.5482 52.1281 40.8266C52.2371 41.0701 51.7259 41.9389 50.9961 42.7727C50.2663 43.6065 49.3539 44.8573 48.9886 45.5524C48.0391 47.2901 46.5066 48.9923 45.1575 49.7558C44.574 50.1376 44.2457 50.4154 44.4644 50.4157C45.5211 50.417 47.9651 48.1942 48.9513 46.3175C49.5356 45.2053 50.7766 43.5028 51.6887 42.5301C53.4035 40.7238 53.7694 39.4723 53.0064 37.7325C52.8248 37.2454 52.7515 37.5583 52.7865 38.7755Z" fill="white"/>
<path d="M60.0371 39.306C60.0356 40.558 60.1078 41.0449 60.1815 40.419C60.2551 39.8279 60.2564 38.7846 60.1842 38.1585C60.1121 37.5672 60.0386 38.054 60.0371 39.306Z" fill="white"/>
<path d="M51.2565 38.565C51.1824 39.5735 51.073 39.7124 50.4173 39.5377C49.6523 39.3281 49.6523 39.3629 50.3074 39.9897C51.2174 40.8255 51.6187 40.3739 51.4385 38.7391C51.2944 37.4174 51.2944 37.4174 51.2565 38.565Z" fill="white"/>
<path d="M32.8189 38.3687C32.9279 38.647 33.2919 38.9604 33.6197 39.1C34.0931 39.2744 34.0933 39.1701 33.511 38.5782C32.7468 37.7426 32.5647 37.7076 32.8189 38.3687Z" fill="white"/>
<path d="M10.809 39.246C10.8082 39.9068 10.8807 40.1851 10.9905 39.8375C11.0637 39.5246 11.0644 38.9681 10.992 38.6203C10.883 38.3071 10.8098 38.5853 10.809 39.246Z" fill="white"/>
<path d="M35.4058 38.6152C35.6605 38.859 35.9519 38.9637 36.0613 38.8595C36.1708 38.7553 35.9888 38.5464 35.6246 38.4416C35.1147 38.2323 35.0782 38.2671 35.4058 38.6152Z" fill="white"/>
<path d="M54.8633 38.8128C54.8628 39.1954 54.972 39.2998 55.0817 39.0218C55.1913 38.7784 55.1552 38.4654 55.046 38.3609C54.9369 38.2217 54.8273 38.4302 54.8633 38.8128Z" fill="white"/>
<path d="M6.03591 39.1011C6.03545 39.4837 6.14463 39.5881 6.25429 39.31C6.3639 39.0667 6.32784 38.7537 6.21865 38.6492C6.10951 38.51 5.99994 38.7185 6.03591 39.1011Z" fill="white"/>
<path d="M41.4166 39.805C40.7956 41.091 40.9046 41.3693 41.5619 40.2225C41.8905 39.6664 42.0733 39.145 41.9641 39.0753C41.8913 39.0057 41.6359 39.3184 41.4166 39.805Z" fill="white"/>
<path d="M42.3265 40.5712C41.9975 41.4402 41.7779 42.2398 41.8507 42.3095C41.9235 42.3791 42.2887 41.7536 42.6177 40.8498C42.9831 39.9808 43.2027 39.2159 43.0935 39.1115C43.0207 39.0418 42.6555 39.7022 42.3265 40.5712Z" fill="white"/>
<path d="M61.4214 39.5164C61.4209 39.8989 61.5301 40.0034 61.6398 39.7253C61.7494 39.482 61.7133 39.1689 61.6042 39.0645C61.495 38.9252 61.3854 39.1338 61.4214 39.5164Z" fill="white"/>
<path d="M65.0652 39.5208C65.0647 39.9034 65.1739 40.0078 65.2836 39.7297C65.3932 39.4864 65.3571 39.1734 65.248 39.0689C65.1388 38.9297 65.0292 39.1382 65.0652 39.5208Z" fill="white"/>
<path d="M38.6473 39.8712C38.428 40.3578 38.4644 40.3926 38.8292 40.08C39.0846 39.8369 39.1942 39.5588 39.085 39.4544C38.9758 39.3499 38.757 39.5235 38.6473 39.8712Z" fill="white"/>
<path d="M54.315 40.238C54.0958 40.7246 54.1322 40.7595 54.4969 40.4469C54.7523 40.2038 54.8619 39.9257 54.7527 39.8212C54.6436 39.7168 54.4247 39.8904 54.315 40.238Z" fill="white"/>
<path d="M6.5798 41.1536C6.68818 41.9188 7.01481 42.9973 7.26916 43.5889L7.77802 44.6328L7.56066 43.5892C7.45207 42.9979 7.12544 41.9194 6.8713 41.154L6.36287 39.7623L6.5798 41.1536Z" fill="white"/>
<path d="M64.735 41.3984C64.7344 41.8852 64.8071 42.0592 64.9167 41.8159C64.9898 41.6073 64.9903 41.19 64.9178 40.9465C64.8087 40.7377 64.7356 40.9115 64.735 41.3984Z" fill="white"/>
<path d="M66.3711 44.2173C66.0408 46.1644 65.4551 48.3894 65.0898 49.1888C63.738 52.0737 55.274 60.6185 52.5761 61.7977C51.6282 62.2138 49.5504 62.8721 47.9102 63.2874C46.27 63.668 44.01 64.3955 42.9163 64.8463C40.9476 65.6785 40.6561 65.713 35.3728 65.4979C29.0329 65.2467 28.1223 64.9674 24.4452 62.3198C22.3336 60.8566 18.0012 57.791 15.1614 55.8052L14.1785 55.1085L15.0882 56.0833C16.2163 57.3019 26.8838 64.6181 28.3771 65.1763C28.9962 65.4205 32.0567 65.7025 35.2266 65.8455C40.8743 66.061 41.0565 66.0264 43.2439 65.1597C44.4834 64.6395 46.9985 63.8775 48.7846 63.3928C52.9763 62.3198 55.4558 60.897 58.0099 58.0831C59.141 56.8326 61.1112 54.7831 62.3516 53.5326C64.65 51.2054 65.6724 49.5025 66.4047 46.6169C66.8441 44.8438 67.3957 40.706 67.1771 40.7058C67.0678 40.7056 66.7379 42.2702 66.3711 44.2173Z" fill="white"/>
<path d="M16.9281 41.4444C16.8896 43.0789 20.9276 48.5438 23.9127 50.8428C25.6601 52.2012 26.8618 52.8286 29.7391 53.9102C32.2158 54.8175 31.5606 54.2255 28.9384 53.1789C25.4056 51.7836 23.3304 50.2508 21.0747 47.4312C18.0185 43.6367 17.9822 43.5671 17.4374 42.1406C17.1832 41.41 16.9649 41.0967 16.9281 41.4444Z" fill="white"/>
<path d="M20.6086 41.1707C20.6084 41.3446 20.7896 42.1795 21.0437 42.9796C21.3704 44.0234 22.3891 45.3114 24.6455 47.5746C27.7754 50.6388 27.8846 50.7433 30.9443 51.6164C32.6927 52.1402 34.1863 52.4898 34.2593 52.3856C34.3687 52.3161 32.9847 51.7928 31.2363 51.2342C28.2495 50.3264 27.849 50.0825 25.1192 47.5404C22.7534 45.3814 22.0257 44.4415 21.4082 42.841C20.9723 41.7276 20.6089 40.962 20.6086 41.1707Z" fill="white"/>
<path d="M48.7724 43.5351C47.7869 44.925 46.7282 46.5234 46.4725 47.0448C45.8152 48.2612 44.0649 49.3024 41.9874 49.7171L40.4202 50.0282L41.9507 49.9258C44.9025 49.6859 46.0334 48.5744 50.0492 42.3195C51.4 40.1997 50.7433 40.8597 48.7724 43.5351Z" fill="white"/>
<path d="M50.3733 45.6237C47.928 48.8897 46.505 50.453 45.484 51.0081C43.8432 51.9103 44.2439 52.0499 45.9575 51.1826C47.0513 50.6275 49.2043 48.0566 52.526 43.2614C55.1176 39.5782 54.0595 40.7594 50.3733 45.6237Z" fill="white"/>
<path d="M11.1333 42.2373C11.1329 42.6198 11.242 42.7243 11.3517 42.4462C11.4613 42.2029 11.4253 41.8898 11.3161 41.7854C11.2069 41.6461 11.0974 41.8547 11.1333 42.2373Z" fill="white"/>
<path d="M14.0846 42.38C14.084 42.8668 14.1567 43.0408 14.2663 42.7975C14.3394 42.5889 14.3399 42.1716 14.2674 41.9281C14.1583 41.7193 14.0852 41.8931 14.0846 42.38Z" fill="white"/>
<path d="M56.1346 42.3269C55.9153 42.8135 55.9517 42.8483 56.3165 42.5358C56.5719 42.2926 56.6815 42.0146 56.5723 41.9101C56.4631 41.8056 56.2443 41.9792 56.1346 42.3269Z" fill="white"/>
<path d="M58.5734 44.2078C55.6149 49.9424 52.5136 53.2772 48.2478 55.3587C47.5551 55.7056 47.2268 55.9834 47.5547 55.9838C47.8462 55.9842 49.487 55.0819 51.1646 53.9363C53.7173 52.2702 54.5564 51.4365 55.98 49.3516C57.9877 46.398 60.0329 42.575 59.8512 42.1575C59.8149 42.0184 59.1944 42.9218 58.5734 44.2078Z" fill="white"/>
<path d="M40.0651 42.4464C39.9191 42.6549 39.8824 42.8635 39.9916 42.9679C40.0643 43.0724 40.2467 42.8987 40.3564 42.5858C40.6122 41.9949 40.3937 41.8903 40.0651 42.4464Z" fill="white"/>
<path d="M15.4693 42.6599C15.4684 43.3902 16.7774 45.6175 17.651 46.3837C18.1242 46.7668 19.1067 47.9156 19.9071 48.9251C21.1804 50.5612 24.6023 53.3128 27.6609 55.0901C29.5179 56.2052 28.171 55.0907 24.3119 52.3387C22.2367 50.8755 20.5622 49.5519 20.5625 49.3433C20.5627 49.1694 19.7259 48.125 18.7069 47.0457C17.688 45.9664 16.5238 44.4348 16.1604 43.6345C15.7969 42.8689 15.4696 42.4164 15.4693 42.6599Z" fill="white"/>
<path d="M64.3683 43.1368C64.3677 43.6237 64.4404 43.7976 64.55 43.5543C64.6231 43.3457 64.6236 42.9284 64.5511 42.6849C64.442 42.4761 64.3689 42.6499 64.3683 43.1368Z" fill="white"/>
<path d="M40.8287 43.7341L40.1353 44.6722L41.0107 43.9082C41.4485 43.4914 41.7769 43.0745 41.6677 42.97C41.5949 42.9004 41.1937 43.2476 40.8287 43.7341Z" fill="white"/>
<path d="M43.1617 43.0414C43.1614 43.25 42.7233 43.9103 42.176 44.5704C41.3732 45.5084 41.3367 45.5779 42.0297 45.0223C43.0145 44.2236 43.6717 43.1463 43.3805 42.833C43.2714 42.7285 43.1619 42.8327 43.1617 43.0414Z" fill="white"/>
<path d="M53.9085 44.9324C52.9598 45.9398 51.8284 47.4686 51.3536 48.3375C49.5277 51.6739 45.8447 53.8951 41.326 54.2374L38.5928 54.4775L40.8884 54.515C45.4066 54.6249 50.1832 51.9529 51.7179 48.4423C52.0467 47.7123 53.1052 46.253 54.1268 45.1414C55.1485 44.0297 55.8783 43.1264 55.8054 43.1263C55.6961 43.1262 54.8571 43.9251 53.9085 44.9324Z" fill="white"/>
<path d="M62.8738 43.6914C62.8733 44.0739 62.9825 44.1784 63.0922 43.9003C63.2018 43.657 63.1657 43.344 63.0565 43.2395C62.9474 43.1003 62.8378 43.3088 62.8738 43.6914Z" fill="white"/>
<path d="M57.2254 44.0671C57.0062 44.5537 57.0426 44.5885 57.4073 44.2759C57.6627 44.0328 57.7723 43.7547 57.6631 43.6503C57.554 43.5458 57.3351 43.7194 57.2254 44.0671Z" fill="white"/>
<path d="M44.3235 46.4162C43.0831 47.6319 42.2803 48.5699 42.5719 48.4659C43.0458 48.2926 47.0226 44.159 46.7311 44.1586C46.6218 44.1585 45.5639 45.1657 44.3235 46.4162Z" fill="white"/>
<path d="M43.6689 45.2677L42.9756 46.0668L43.8145 45.407C44.2522 45.025 44.617 44.6777 44.6171 44.6081C44.6174 44.3299 44.3257 44.5382 43.6689 45.2677Z" fill="white"/>
<path d="M63.9654 45.0838C63.9649 45.4663 64.0741 45.5708 64.1837 45.2927C64.2933 45.0494 64.2573 44.7364 64.1481 44.6319C64.039 44.4927 63.9294 44.7012 63.9654 45.0838Z" fill="white"/>
<path d="M7.81429 44.9111C7.81302 45.9544 13.0501 54.2029 14.0697 54.7606C14.3246 54.9 14.2519 54.726 13.9244 54.3431C13.5605 53.9601 12.0694 51.6282 10.542 49.1572C9.05103 46.6862 7.81446 44.7719 7.81429 44.9111Z" fill="white"/>
<path d="M54.8528 47.4723C52.882 50.0782 50.1096 52.6135 48.0678 53.6544C47.4844 53.9666 47.1562 54.2097 47.3748 54.2447C49.0144 54.2815 54.7782 48.8981 56.6771 45.527C57.371 44.2411 56.7872 44.9012 54.8528 47.4723Z" fill="white"/>
<path d="M59.4097 45.8086C59.1905 46.2952 59.2269 46.33 59.5916 46.0175C59.847 45.7743 59.9567 45.4962 59.8475 45.3918C59.7383 45.2873 59.5194 45.4609 59.4097 45.8086Z" fill="white"/>
<path d="M42.0645 46.2395C41.7363 46.4478 41.6997 46.5869 41.9547 46.5872C42.1734 46.5874 42.5015 46.4139 42.611 46.2402C42.9031 45.8232 42.7573 45.823 42.0645 46.2395Z" fill="white"/>
<path d="M63.5995 46.2658C63.5627 46.544 63.1606 47.6215 62.6493 48.5947C62.1743 49.6026 61.8454 50.4369 61.9547 50.437C62.3191 50.4375 63.9999 46.614 63.8183 46.1617C63.6728 45.8833 63.5999 45.918 63.5995 46.2658Z" fill="white"/>
<path d="M16.1196 47.0774C16.5197 47.6343 17.8298 48.9922 18.9581 50.0369C20.9965 51.8478 20.9601 51.8129 18.5582 49.3408C15.2101 45.859 15.2465 45.8939 16.1196 47.0774Z" fill="white"/>
<path d="M22.314 47.0849C23.2597 48.4771 26.9359 51.7854 27.5189 51.7861C27.774 51.7864 27.4829 51.4383 26.9004 50.9855C26.2815 50.5674 24.862 49.2789 23.6973 48.1299C22.5327 46.9808 21.9138 46.528 22.314 47.0849Z" fill="white"/>
<path d="M39.0759 46.8271C39.5131 46.8972 40.2418 46.8981 40.7156 46.8291C41.153 46.7601 40.7887 46.6901 39.8777 46.689C38.9668 46.6879 38.6023 46.757 39.0759 46.8271Z" fill="white"/>
<path d="M5.98972 47.0302C5.98895 47.6562 8.24367 51.3106 9.48095 52.6336L10.7546 54.0262L9.44502 52.2162C8.71749 51.2068 7.66278 49.571 7.081 48.5618C6.46278 47.5525 5.98993 46.8564 5.98972 47.0302Z" fill="white"/>
<path d="M11.3087 47.9409C12.1065 51.1066 15.0175 54.4487 19.6777 57.6539C22.2626 59.4307 26.5233 61.5573 27.4343 61.5236C27.5436 61.5237 26.1599 60.757 24.3391 59.8158C22.5183 58.9093 20.2971 57.6547 19.4233 57.0624C16.5834 55.181 13.3811 51.7341 12.1815 49.3331C11.5636 48.0803 11.1636 47.4539 11.3087 47.9409Z" fill="white"/>
<path d="M37.2519 48.5637C37.5069 48.6684 37.8349 48.634 37.9443 48.5298C38.0902 48.4256 37.8717 48.321 37.4708 48.3553C37.07 48.3548 36.9606 48.459 37.2519 48.5637Z" fill="white"/>
<path d="M13.2753 48.9171C13.275 49.1605 13.9663 50.0308 14.8398 50.8665C15.8588 51.8415 16.0045 51.9112 15.2403 51.0757C14.6217 50.4141 13.9304 49.5439 13.7123 49.1611C13.4941 48.7782 13.2756 48.6736 13.2753 48.9171Z" fill="white"/>
<path d="M38.709 48.9133C38.9639 49.0179 39.2919 48.9835 39.4013 48.8793C39.5472 48.7752 39.3287 48.6706 38.9278 48.7049C38.527 48.7044 38.4176 48.8086 38.709 48.9133Z" fill="white"/>
<path d="M16.7347 50.7297C17.0986 51.1127 17.4626 51.4261 17.5719 51.4263C17.6813 51.4264 17.463 51.1131 17.0991 50.7301C16.7352 50.3471 16.3712 50.0337 16.2619 50.0336C16.1526 50.0334 16.3708 50.3467 16.7347 50.7297Z" fill="white"/>
<path d="M37.0671 50.7892C38.2687 51.4862 41.4022 51.5944 42.7876 50.9701C43.9907 50.4499 43.9908 50.4151 42.9702 50.6573C41.5123 50.9685 40.0548 50.9668 38.0511 50.6513C36.8124 50.4759 36.5573 50.5104 37.0671 50.7892Z" fill="white"/>
<path d="M33.9692 51.3419C34.2242 51.4465 34.5521 51.4122 34.6616 51.308C34.8075 51.2038 34.589 51.0992 34.1881 51.1335C33.7873 51.133 33.6778 51.2372 33.9692 51.3419Z" fill="white"/>
<path d="M35.4262 51.6914C35.6812 51.7961 36.0092 51.7617 36.1186 51.6575C36.2645 51.5534 36.046 51.4488 35.6451 51.4831C35.2443 51.4826 35.1349 51.5868 35.4262 51.6914Z" fill="white"/>
<path d="M28.7577 52.1006C29.1583 52.2402 29.9961 52.4847 30.579 52.5897L31.6719 52.7997L30.5793 52.3115C29.9967 52.0326 29.1588 51.8229 28.758 51.8224L28.0293 51.8215L28.7577 52.1006Z" fill="white"/>
<path d="M40.5265 52.5323C42.457 53.0911 41.8738 53.2643 38.8861 53.0867L36.0442 52.8746L38.9223 53.2607C41.0354 53.5415 41.9828 53.5426 42.4933 53.2302C42.8579 53.022 43.5141 52.8142 43.9513 52.8147C45.1903 52.7467 42.0937 52.1864 40.5998 52.1846L39.3244 52.2178L40.5265 52.5323Z" fill="white"/>
<path d="M57.9061 53.6316L56.4468 55.1252L58.0153 53.736C59.4379 52.4858 59.7298 52.1732 59.4383 52.1728C59.3654 52.1727 58.6723 52.8326 57.9061 53.6316Z" fill="white"/>
<path d="M59.6926 52.9382L58.9993 53.7372L59.8381 53.0775C60.2759 52.6955 60.6407 52.3481 60.6408 52.2786C60.6411 52.0004 60.3493 52.2087 59.6926 52.9382Z" fill="white"/>
<path d="M35.0608 52.7343C35.3157 52.839 35.6437 52.8046 35.7531 52.7004C35.899 52.5962 35.6805 52.4916 35.2797 52.5259C34.8788 52.5254 34.7694 52.6296 35.0608 52.7343Z" fill="white"/>
<path d="M12.7194 56.2891C13.9205 57.4382 14.976 58.3785 15.0489 58.3786C15.1582 58.3787 14.2849 57.4387 13.0838 56.2896C11.8827 55.1405 10.8272 54.2002 10.7543 54.2001C10.645 54.2 11.5184 55.14 12.7194 56.2891Z" fill="white"/>
<path d="M35.4228 54.4736C35.6778 54.5782 36.0057 54.5439 36.1152 54.4397C36.2611 54.3355 36.0426 54.2309 35.6417 54.2652C35.2409 54.2647 35.1314 54.3689 35.4228 54.4736Z" fill="white"/>
<path d="M45.99 54.4865C46.2449 54.5911 46.5729 54.5567 46.6823 54.4525C46.8282 54.3484 46.6097 54.2438 46.2088 54.2781C45.808 54.2776 45.6986 54.3818 45.99 54.4865Z" fill="white"/>
<path d="M57.3574 55.4045C56.6643 56.0297 55.4972 56.9672 54.8042 57.4881C54.1112 58.0436 53.8922 58.3216 54.3297 58.1135C55.0954 57.7318 59.1442 54.2938 58.8163 54.2934C58.707 54.2933 58.0505 54.7794 57.3574 55.4045Z" fill="white"/>
<path d="M33.3081 55.4448C33.8179 55.7236 34.6193 55.9333 35.1294 55.9339C35.7853 55.9347 35.5668 55.7953 34.4013 55.4113C32.3615 54.8176 32.1428 54.8174 33.3081 55.4448Z" fill="white"/>
<path d="M41.5067 55.6287L40.0489 55.8703L41.5792 55.9417C42.4173 55.9428 43.2191 55.8046 43.3286 55.6309C43.4382 55.4224 43.4383 55.318 43.2561 55.3178C43.1103 55.3524 42.3085 55.4905 41.5067 55.6287Z" fill="white"/>
<path d="M28.9353 55.7524C28.9352 55.8568 29.2628 56.1006 29.6634 56.3098C30.0639 56.5189 30.3918 56.5889 30.3919 56.5193C30.392 56.415 30.0644 56.1711 29.6638 55.962C29.2632 55.7528 28.9354 55.6829 28.9353 55.7524Z" fill="white"/>
<path d="M36.5139 56.2138C36.7688 56.3184 37.0968 56.2841 37.2063 56.1799C37.3521 56.0757 37.1336 55.9711 36.7328 56.0054C36.332 56.0049 36.2225 56.1091 36.5139 56.2138Z" fill="white"/>
<path d="M45.9878 56.2253C46.2427 56.33 46.5707 56.2956 46.6801 56.1914C46.826 56.0873 46.6075 55.9827 46.2067 56.0169C45.8058 56.0165 45.6964 56.1207 45.9878 56.2253Z" fill="white"/>
<path d="M31.6662 57.286C32.9401 58.4004 36.0735 58.6476 38.953 57.9208C40.7391 57.4361 40.7026 57.4361 37.2772 57.6058C35.0179 57.7422 33.3054 57.6705 32.5405 57.3914C31.8849 57.1819 31.4842 57.1119 31.6662 57.286Z" fill="white"/>
<path d="M41.2495 57.2629C41.5044 57.3675 41.8324 57.3331 41.9419 57.2289C42.0877 57.1248 41.8692 57.0202 41.4684 57.0545C41.0676 57.054 40.9581 57.1582 41.2495 57.2629Z" fill="white"/>
<path d="M15.4498 58.5182C15.4497 58.5877 15.7409 58.8663 16.105 59.1102C16.651 59.563 16.6875 59.5282 16.2145 58.9712C15.7415 58.4142 15.4502 58.24 15.4498 58.5182Z" fill="white"/>
<path d="M28.5674 58.5689C28.5671 58.8124 32.2453 60.5557 32.4276 60.4168C32.5006 60.3474 31.6631 59.8595 30.5706 59.3365C29.4781 58.8135 28.5676 58.4646 28.5674 58.5689Z" fill="white"/>
<path d="M52.1789 58.9803C50.7934 59.6741 50.8659 59.9524 52.2514 59.2933C52.8712 58.9811 53.3453 58.6687 53.3454 58.5991C53.3457 58.3557 53.3092 58.3904 52.1789 58.9803Z" fill="white"/>
<path d="M35.4165 59.6902C35.6351 59.76 36.0723 59.7605 36.3275 59.6913C36.5462 59.5872 36.3641 59.5174 35.854 59.5168C35.3439 59.5162 35.1616 59.5855 35.4165 59.6902Z" fill="white"/>
<path d="M37.6028 59.6928C37.8577 59.7975 38.1857 59.7631 38.2951 59.6589C38.441 59.5547 38.2225 59.4501 37.8216 59.4844C37.4208 59.4839 37.3114 59.5881 37.6028 59.6928Z" fill="white"/>
<path d="M19.0904 61.0961C20.5464 62.3151 25.826 65.5558 26.9188 65.9049C27.3194 66.0097 26.7005 65.5569 25.4989 64.8599C24.3338 64.1629 22.3676 62.9085 21.1297 62.1072C18.2899 60.1562 17.4523 59.7726 19.0904 61.0961Z" fill="white"/>
<path d="M48.2407 61.2012C47.9126 61.4095 47.8759 61.5485 48.131 61.5488C48.3496 61.5491 48.6778 61.3756 48.7873 61.2019C49.0793 60.7849 48.9336 60.7847 48.2407 61.2012Z" fill="white"/>
<path d="M32.754 61.704C33.3731 61.983 34.1016 62.1925 34.3931 62.1929C34.6846 62.1932 34.357 61.9494 33.6649 61.7051C31.9895 61.0771 31.3336 61.111 32.754 61.704Z" fill="white"/>
<path d="M30.7122 62.7448C31.3678 63.0238 32.0963 63.2681 32.3514 63.2337C32.898 63.1996 30.6764 62.2579 30.0205 62.2571C29.729 62.2567 30.0203 62.4657 30.7122 62.7448Z" fill="white"/>
<path d="M35.4131 62.4723C35.6317 62.5421 36.0689 62.5427 36.3241 62.4734C36.5428 62.3694 36.3607 62.2996 35.8506 62.299C35.3404 62.2984 35.1582 62.3677 35.4131 62.4723Z" fill="white"/>
<path d="M40.7681 63.4526C39.7475 63.7296 39.3465 63.903 39.8566 63.9036C40.3668 63.9042 41.4237 63.7316 42.2257 63.4544C44.0847 62.8654 43.1373 62.8643 40.7681 63.4526Z" fill="white"/>
<path d="M34.6826 63.8625C34.9375 63.9672 35.2655 63.9328 35.375 63.8286C35.5208 63.7244 35.3023 63.6198 34.9015 63.6541C34.5007 63.6536 34.3912 63.7578 34.6826 63.8625Z" fill="white"/>
<path d="M37.2329 64.2134C37.4515 64.2832 37.8887 64.2837 38.1439 64.2145C38.3626 64.1104 38.1805 64.0407 37.6704 64.04C37.1603 64.0394 36.978 64.1087 37.2329 64.2134Z" fill="white"/>
<path d="M43.8615 66.6559C42.5857 67.0369 40.873 67.1043 36.2091 66.9943C32.8933 66.886 30.8528 66.8835 31.6543 66.954C32.4559 67.0245 34.6783 67.2707 36.6093 67.4469C39.4511 67.7634 40.6172 67.73 42.7311 67.3153C44.1525 67.0388 45.6105 66.658 45.9387 66.4497C46.8867 65.9292 45.8663 66.0323 43.8615 66.6559Z" fill="white"/>
<path d="M28.6049 27.8608C27.9119 28.4164 27.6564 28.7639 28.0575 28.5557C28.7138 28.2435 30.3918 26.7154 30.0274 26.7497C29.9544 26.7844 29.298 27.2705 28.6049 27.8608Z" fill="white"/>
<path d="M85.8602 32.0507C85.8407 48.0551 85.9231 49.1403 87.5147 49.1422C88.9387 49.1439 89.1076 48.0591 89.371 38.1584L89.6357 27.1726L92.8079 36.1281C94.6448 41.013 96.399 45.0841 96.8178 45.0846C97.1529 45.085 98.9168 41.1539 100.682 36.2733C102.447 31.5284 104.127 27.4615 104.546 27.4621C104.881 27.4625 105.126 32.3455 105.119 38.3132C105.107 48.2142 105.273 49.1638 106.781 49.1657C108.373 49.1676 108.458 48.2183 108.477 32.2139C108.496 16.4808 108.414 15.26 106.906 15.2582C105.734 15.2567 104.138 18.5099 101.448 26.102C99.263 32.0671 97.2466 36.9473 96.9115 36.9469C96.5765 36.9465 94.5718 32.197 92.4846 26.4979C90.3975 20.6633 88.058 15.7777 87.3044 15.5056C86.0484 15.0971 85.8787 16.8601 85.8602 32.0507Z" fill="#A67C5D"/>
<path d="M118.71 21.6472C117.784 25.3081 115.597 32.9007 113.998 38.5953C111.054 49.0352 111.053 49.1709 112.896 49.1731C114.237 49.1747 115.076 47.9551 115.749 45.1077C116.676 41.1755 116.843 41.0401 122.288 41.0467C127.649 41.0533 127.817 41.1891 128.649 45.1234C129.316 48.1081 130.069 49.194 131.493 49.1958C133.419 49.1981 133.336 48.6555 128.749 32.2386C124.829 18.1283 123.744 15.2787 122.236 15.2769C120.895 15.2752 119.972 16.9017 118.71 21.6472ZM124.398 28.3C125.315 31.8275 126.065 35.0836 126.064 35.7617C126.063 36.4399 124.387 36.9804 122.293 36.9778C120.199 36.9753 118.524 36.4307 118.525 35.7525C118.527 33.9894 121.725 22.0578 122.227 22.0584C122.479 22.0587 123.397 24.908 124.398 28.3Z" fill="#A67C5D"/>
<path d="M136.958 32.2486L136.937 49.2024L142.382 49.209C149.167 49.2173 153.191 46.6452 155.376 40.8158C158.486 32.6817 157.24 23.9999 152.137 18.4328C149.794 15.853 148.12 15.3084 143.177 15.3024L136.979 15.2948L136.958 32.2486ZM150.373 22.0927C152.632 24.1299 153.964 31.4555 152.868 36.6082C151.774 41.4895 149.006 43.7919 144.064 43.7859L140.295 43.7813L140.309 32.2527L140.323 20.7241L144.595 20.7293C146.94 20.7322 149.536 21.2779 150.373 22.0927Z" fill="#A67C5D"/>
<path d="M162.088 32.2792L162.067 49.233L169.606 49.2422C176.559 49.2507 177.146 49.1158 177.149 46.5388C177.152 44.0974 176.566 43.8255 171.288 43.819L165.425 43.8119L165.43 39.0648L165.436 34.3178L170.462 34.3239C174.902 34.3293 175.489 34.0587 175.492 31.6174C175.495 29.1761 174.909 28.9041 170.469 28.8987C165.443 28.8925 165.443 28.8925 165.448 24.8236C165.453 20.8904 165.453 20.8904 171.066 20.4903C175.673 20.2247 176.763 19.6835 177.016 17.6493C177.27 15.6152 176.517 15.343 169.732 15.3347L162.109 15.3254L162.088 32.2792Z" fill="#A67C5D"/>
<path d="M179.699 16.025C179.699 16.4319 181.202 20.0958 183.04 24.3025L186.465 31.6308L182.601 40.4421C178.822 48.8465 178.737 49.2533 180.664 49.2557C181.921 49.2572 183.179 47.9024 184.103 45.4622C184.86 43.4287 186.203 40.4464 187.043 38.6843L188.555 35.5666L191.478 42.3517C193.483 47.3725 194.905 49.273 196.245 49.2747C198.171 49.277 198.004 48.8699 194.329 40.4563L190.486 31.6357L193.847 23.7732C196.786 17.2665 197.039 15.9105 195.867 15.5022C194.946 15.2298 193.688 16.5846 192.68 18.7534C188.228 28.649 188.731 28.514 185.724 21.5932C184.053 17.7935 182.297 15.35 181.292 15.3488C180.454 15.3478 179.7 15.6181 179.699 16.025Z" fill="#A67C5D"/>
<path d="M92.1748 24.6719H96.3643L101.125 39.5107L105.886 24.6719H110.075L102.824 46H99.4258L92.1748 24.6719ZM89.626 24.6719H93.9619L94.7676 41.0195V46H89.626V24.6719ZM108.288 24.6719H112.639V46H107.482V41.0195L108.288 24.6719ZM129.436 29.1543L124.236 46H118.714L126.551 24.6719H130.052L129.436 29.1543ZM133.743 46L128.528 29.1543L127.854 24.6719H131.399L139.28 46H133.743ZM133.538 38.0459V42.0156H122.596V38.0459H133.538ZM151.976 46H147.245L147.274 42.0449H151.976C152.953 42.0449 153.778 41.8105 154.452 41.3418C155.135 40.873 155.653 40.1748 156.004 39.2471C156.366 38.3096 156.546 37.1572 156.546 35.79V34.8672C156.546 33.8418 156.444 32.9434 156.239 32.1719C156.044 31.3906 155.751 30.7412 155.36 30.2236C154.969 29.6963 154.481 29.3008 153.895 29.0371C153.319 28.7734 152.655 28.6416 151.903 28.6416H147.157V24.6719H151.903C153.348 24.6719 154.671 24.9209 155.873 25.4189C157.084 25.9072 158.129 26.6104 159.007 27.5283C159.896 28.4365 160.58 29.5156 161.058 30.7656C161.546 32.0059 161.791 33.3828 161.791 34.8965V35.79C161.791 37.2939 161.546 38.6709 161.058 39.9209C160.58 41.1709 159.901 42.25 159.022 43.1582C158.143 44.0664 157.103 44.7695 155.902 45.2676C154.711 45.7559 153.402 46 151.976 46ZM150.189 24.6719V46H145.047V24.6719H150.189ZM183.349 42.0449V46H171.982V42.0449H183.349ZM173.813 24.6719V46H168.671V24.6719H173.813ZM181.884 33.1387V36.9619H171.982V33.1387H181.884ZM183.393 24.6719V28.6416H171.982V24.6719H183.393ZM194.126 24.6719L197.613 31.7617L201.099 24.6719H206.958L201.011 35.248L207.119 46H201.201L197.613 38.7783L194.024 46H188.091L194.214 35.248L188.252 24.6719H194.126Z" fill="white"/>
</svg>
